<?xml version="1.0" standalone="no"?>
<!DOCTYPE svg PUBLIC "-//W3C//DTD SVG 20010904//EN"
 "http://www.w3.org/TR/2001/REC-SVG-20010904/DTD/svg10.dtd">
<svg version="1.0" xmlns="http://www.w3.org/2000/svg"
 width="743.000000pt" height="743.000000pt" viewBox="0 0 743.000000 743.000000"
 preserveAspectRatio="xMidYMid meet">
<metadata>
Created by potrace 1.14, written by Peter Selinger 2001-2017
</metadata>
<g transform="translate(0.000000,743.000000) scale(0.100000,-0.100000)"
fill="#000000" stroke="none">
<path d="M4770 6854 c-79 -23 -150 -67 -220 -134 -115 -110 -162 -216 -162
-364 1 -92 6 -162 15 -191 6 -20 13 -51 24 -110 3 -16 10 -38 15 -49 7 -13 6
-21 -3 -27 -10 -6 -11 -9 -1 -9 6 0 12 -11 12 -25 0 -14 -5 -25 -11 -25 -5 0
-7 -4 -4 -10 3 -6 -1 -7 -9 -4 -9 3 -16 14 -17 23 0 11 -2 12 -6 3 -4 -10 -8
-9 -19 5 -17 22 -18 37 -2 27 7 -4 8 -3 4 5 -4 6 -12 9 -17 5 -11 -7 -46 35
-41 49 1 5 -2 6 -7 3 -12 -8 -34 20 -27 33 4 5 1 13 -5 17 -8 4 -9 3 -5 -4 15
-25 -7 -10 -52 35 -26 25 -46 50 -45 54 2 5 -4 6 -12 3 -8 -4 -15 -1 -15 5 0
6 -5 11 -11 11 -6 0 -17 6 -24 13 -34 30 -43 35 -49 30 -3 -4 -6 -2 -6 3 0 5
-10 11 -22 11 -13 1 -24 7 -26 13 -2 5 -12 10 -23 10 -10 0 -19 4 -19 10 0 5
-3 9 -7 8 -7 -2 -29 3 -133 29 -45 11 -220 11 -255 0 -19 -5 -49 -23 -67 -38
-30 -25 -33 -31 -31 -80 2 -69 3 -74 36 -137 15 -29 25 -57 22 -63 -4 -5 -2
-8 5 -7 6 2 18 -10 28 -27 23 -39 27 -45 57 -79 14 -16 25 -32 25 -36 0 -5 13
-23 30 -42 16 -18 30 -37 31 -43 1 -5 10 -16 20 -23 11 -7 26 -27 35 -43 15
-30 15 -30 -8 -17 -13 7 -26 18 -30 23 -4 6 -8 7 -8 3 0 -5 -28 7 -63 25 -35
17 -67 33 -73 34 -5 1 -58 19 -119 41 -95 33 -201 62 -283 77 -13 2 -31 6 -40
9 -9 3 -35 8 -57 11 -23 3 -52 8 -65 10 -98 20 -216 29 -365 29 -121 0 -267
-8 -325 -18 -14 -3 -41 -7 -60 -10 -38 -6 -60 -10 -135 -26 -79 -16 -87 -18
-228 -56 -260 -69 -377 -112 -554 -206 -143 -75 -193 -109 -277 -188 -254
-237 -380 -404 -483 -640 -70 -159 -137 -385 -158 -533 -3 -27 -9 -59 -12 -70
-12 -52 -11 -375 2 -456 14 -83 13 -101 -5 -101 -5 0 -38 -13 -72 -29 -186
-87 -270 -255 -272 -546 0 -134 8 -259 22 -310 4 -17 8 -37 7 -45 -1 -8 2 -19
6 -25 3 -5 5 -20 4 -32 -1 -13 2 -23 7 -23 4 0 7 -3 6 -7 -3 -16 47 -198 62
-225 6 -10 10 -25 10 -33 0 -8 4 -23 9 -33 5 -9 14 -30 21 -47 7 -16 19 -43
27 -58 8 -15 12 -35 9 -43 -3 -8 -2 -12 3 -9 12 7 24 -31 15 -46 -4 -7 -3 -9
3 -6 14 8 47 -59 37 -75 -4 -7 -3 -8 4 -4 7 4 12 1 12 -8 0 -9 3 -16 8 -16 4
0 18 -25 32 -55 14 -30 28 -55 32 -55 4 0 9 -8 13 -19 3 -10 14 -29 25 -41 11
-12 17 -27 14 -31 -3 -5 -1 -9 5 -9 5 0 12 -8 16 -19 3 -10 15 -29 26 -42 11
-12 17 -28 15 -35 -3 -8 1 -11 9 -8 9 4 16 -3 21 -20 3 -14 10 -23 15 -20 5 3
9 -2 9 -10 0 -9 5 -16 10 -16 6 0 10 -5 10 -11 0 -6 7 -17 15 -26 8 -8 13 -19
9 -24 -3 -5 0 -8 6 -7 7 2 17 -6 23 -17 7 -11 21 -28 31 -37 10 -10 16 -18 12
-18 -4 0 4 -11 18 -24 15 -13 26 -27 26 -32 0 -5 9 -16 20 -24 11 -8 20 -19
20 -25 0 -6 9 -16 21 -23 12 -8 18 -19 15 -28 -3 -8 -2 -13 3 -9 5 3 17 -2 26
-11 13 -13 13 -19 3 -33 -11 -14 -11 -14 2 -4 13 10 25 2 72 -47 31 -32 53
-62 49 -66 -3 -4 0 -5 8 -2 20 6 75 -57 65 -74 -6 -10 -5 -11 8 -1 12 11 18
10 32 -5 9 -10 13 -21 10 -24 -3 -3 3 -5 13 -5 10 1 17 -4 15 -11 -1 -6 4 -11
10 -10 7 2 12 -2 11 -8 -1 -7 5 -11 15 -10 9 0 16 -5 14 -12 -1 -8 2 -11 8 -7
6 4 18 -1 25 -11 8 -11 15 -15 15 -10 0 5 9 -1 20 -14 11 -13 20 -19 20 -14 0
5 7 0 15 -10 8 -11 15 -16 15 -12 0 5 12 1 26 -9 56 -37 131 -74 137 -68 4 3
11 -6 17 -21 5 -15 14 -24 20 -21 5 3 10 8 10 11 0 3 -5 2 -10 -1 -6 -3 -10
-1 -10 4 0 14 3 14 35 -1 14 -6 25 -15 25 -20 0 -5 -4 -6 -10 -3 -5 3 -10 1
-10 -4 0 -14 6 -14 28 0 14 9 26 8 50 -5 18 -9 38 -14 44 -10 7 5 9 2 5 -8 -4
-12 -1 -14 14 -11 20 6 52 -24 43 -39 -3 -5 -3 -8 0 -8 3 0 10 9 16 20 9 16 8
18 -5 14 -8 -4 -15 -2 -15 4 0 13 33 9 37 -4 2 -6 17 -9 33 -8 27 2 29 -1 24
-21 -3 -13 -2 -25 3 -28 5 -3 9 4 9 16 -1 23 -8 22 112 15 25 -2 27 -9 10 -26
-9 -9 -9 -12 1 -12 7 0 9 -5 5 -12 -4 -7 -3 -8 5 -4 6 4 9 12 6 17 -8 11 20
41 29 32 12 -12 48 -14 40 -2 -4 8 -1 8 12 2 22 -11 123 -11 140 -1 6 4 14 4
18 1 10 -10 36 -13 36 -4 0 4 7 8 15 8 8 0 12 -4 9 -9 -6 -10 10 -11 20 -1 12
12 48 14 41 2 -4 -6 -14 -8 -24 -4 -11 4 -13 3 -5 -5 14 -14 44 -2 44 17 0 8
4 12 9 9 5 -3 29 0 53 8 24 7 55 11 68 9 13 -2 26 1 30 7 3 5 15 11 25 13 11
1 26 6 33 11 7 4 16 5 19 2 3 -3 15 0 27 6 11 7 24 13 29 14 4 1 8 2 10 3 1 2
13 5 27 7 13 2 28 10 32 17 4 6 8 8 8 2 0 -5 5 -4 12 3 7 7 19 12 27 12 8 0
24 8 35 18 20 16 20 16 7 0 -15 -21 -9 -23 20 -7 17 9 21 7 26 -10 6 -25 50
-23 45 2 -2 12 5 15 30 12 21 -3 28 -1 19 4 -11 7 -11 10 0 14 9 4 6 6 -5 4
-10 -1 -21 3 -23 9 -2 8 11 11 39 9 25 -1 53 5 66 13 19 13 25 13 32 2 9 -14
30 -5 30 13 0 9 -2 9 -8 0 -5 -8 -12 -8 -25 2 -23 16 -23 23 -1 39 15 11 15
13 0 13 -15 0 -20 -10 -17 -29 0 -5 -4 -8 -9 -8 -6 0 -10 6 -10 14 0 16 16 29
39 33 8 1 17 6 20 11 11 16 51 33 63 26 7 -5 9 -2 5 9 -5 14 11 28 38 32 6 0
9 7 7 14 -1 7 2 10 7 7 14 -9 42 5 34 17 -3 6 -1 7 5 3 6 -3 16 2 22 13 7 13
16 18 28 14 9 -3 14 -3 10 2 -10 10 11 37 23 29 5 -3 9 0 9 5 0 6 7 11 15 11
8 0 14 3 12 8 -2 8 6 12 29 12 8 0 12 -4 9 -10 -3 -5 -1 -10 5 -10 7 0 9 7 6
16 -3 9 -6 18 -6 20 0 3 -6 2 -12 -2 -9 -6 -9 -3 0 9 8 9 22 19 33 22 11 4 17
11 13 16 -3 5 0 8 7 7 7 -2 13 4 14 12 0 13 16 16 53 11 11 -1 11 -31 1 -31
-4 0 -9 5 -11 12 -3 8 -9 8 -24 -1 -19 -12 -19 -12 1 -7 19 6 19 6 1 -9 -10
-8 -23 -12 -28 -8 -6 3 -5 -4 1 -15 9 -17 8 -22 -9 -27 -28 -9 -25 -17 13 -38
l32 -17 -24 20 c-27 23 -21 40 6 19 16 -12 17 -12 6 2 -10 12 -10 18 0 29 9
10 9 11 -1 6 -6 -4 -12 -2 -12 3 0 12 23 15 33 4 4 -3 2 -12 -3 -18 -7 -9 -5
-17 7 -26 16 -13 17 -12 4 3 -12 16 -10 19 10 26 l23 9 -22 5 c-12 4 -22 11
-22 17 0 9 5 9 21 0 12 -6 19 -7 16 -2 -7 11 21 49 29 40 4 -4 1 -15 -7 -24
-12 -17 -12 -17 5 -1 22 20 12 41 -15 33 -18 -6 -19 -5 -7 14 11 18 14 19 30
5 9 -9 23 -14 30 -11 9 4 7 6 -4 6 -9 1 -20 6 -23 11 -4 7 2 9 19 4 14 -3 26
-2 27 2 0 5 2 18 4 29 2 10 -1 25 -7 32 -7 9 -7 13 0 13 6 0 14 -5 17 -10 5
-8 11 -7 21 1 7 6 20 9 29 6 17 -7 30 9 15 18 -5 3 -10 11 -10 17 0 6 10 3 23
-8 12 -10 19 -15 15 -10 -4 5 -2 16 5 25 10 14 10 14 -3 5 -11 -9 -18 -9 -27
1 -17 18 -8 23 35 20 20 -2 29 -1 20 2 -14 4 -15 8 -6 29 8 17 14 21 19 12 4
-7 3 -15 -3 -19 -5 -4 1 -6 15 -6 24 0 24 0 6 18 -11 11 -19 23 -19 27 0 5 -7
9 -15 9 -11 0 -13 -6 -9 -20 6 -18 5 -18 -13 0 -18 18 -18 18 2 29 11 6 19 16
18 22 -2 7 2 12 8 12 6 0 9 -7 6 -15 -4 -8 -2 -17 2 -20 12 -7 22 22 14 41 -4
12 -2 15 8 12 8 -3 13 -13 11 -23 -2 -9 1 -14 7 -11 5 4 12 2 16 -4 4 -6 11
-8 16 -4 5 3 16 1 23 -5 9 -8 18 -6 32 5 18 14 18 15 -3 4 -17 -8 -24 -7 -31
6 -5 9 -12 15 -15 15 -20 -3 -30 0 -24 6 4 3 -5 15 -20 25 -16 10 -23 18 -17
18 6 0 23 -11 38 -25 17 -16 26 -19 26 -10 0 8 -4 17 -10 20 -5 3 -10 14 -9
23 0 12 3 11 9 -5 5 -13 14 -23 20 -23 6 0 8 -4 5 -10 -11 -18 5 -31 24 -20
12 6 22 5 31 -3 12 -10 12 -9 1 5 -15 21 -2 24 19 6 12 -11 12 -10 1 5 -8 10
-9 17 -3 17 6 0 16 -8 21 -17 6 -10 11 -13 11 -6 0 6 -4 15 -10 18 -5 3 -10
11 -10 17 0 6 9 3 20 -7 11 -10 20 -13 20 -7 0 7 -5 12 -11 12 -5 0 -7 5 -4
10 5 8 11 7 21 -1 8 -6 14 -7 14 -3 0 16 -38 35 -46 23 -4 -8 -10 -7 -16 2 -7
11 -8 10 -4 -4 4 -12 2 -16 -6 -11 -7 4 -8 3 -4 -4 5 -8 1 -10 -11 -6 -12 4
-14 3 -6 -3 8 -6 2 -14 -19 -26 -22 -13 -28 -14 -19 -3 10 11 9 16 -2 23 -11
6 -9 12 7 27 16 16 18 17 13 3 -12 -31 22 -16 41 18 6 11 12 14 12 8 0 -7 4
-13 10 -13 5 0 9 5 7 12 -3 15 23 18 41 5 9 -7 11 -6 7 5 -4 9 3 19 19 26 29
13 41 5 23 -16 -10 -13 -9 -15 5 -9 10 3 20 1 24 -6 4 -7 4 -9 -1 -5 -4 4 -14
1 -22 -7 -19 -19 -40 -20 -24 -1 9 10 8 15 -1 19 -8 3 -14 -5 -14 -19 -2 -27
-1 -28 40 -13 29 10 34 8 78 -33 40 -37 98 -66 168 -83 8 -2 27 -8 41 -13 24
-9 31 -6 78 40 71 69 106 141 115 239 2 14 6 31 10 37 3 6 2 14 -4 17 -6 4 -8
15 -5 26 4 11 2 19 -5 19 -7 0 -10 8 -7 20 3 11 1 20 -3 20 -13 0 -5 27 14 49
10 11 24 17 32 14 8 -3 14 -1 12 5 -2 5 23 37 54 70 41 44 58 56 62 45 9 -22
7 -26 -9 -19 -8 3 -14 2 -13 -2 3 -14 -15 -43 -21 -34 -3 6 -12 3 -21 -6 -13
-14 -12 -15 3 -9 9 3 19 2 22 -3 4 -6 1 -10 -4 -10 -6 0 -11 -5 -11 -11 0 -8
4 -9 13 0 8 6 16 9 19 6 3 -3 11 1 18 10 7 8 8 15 3 15 -5 0 -10 6 -10 13 0 8
12 14 30 14 27 0 28 -1 11 -14 -10 -7 -13 -13 -7 -13 6 0 16 6 22 14 9 10 8
16 -4 26 -10 9 -15 9 -15 1 0 -6 -4 -11 -8 -11 -4 0 -8 9 -8 20 0 13 5 19 13
15 7 -3 20 -8 28 -11 8 -3 15 -1 15 6 0 6 -4 8 -10 5 -5 -3 -10 -1 -10 5 0 6
-4 9 -8 6 -4 -2 -14 -1 -22 5 -11 6 -12 9 -2 9 7 0 11 4 8 9 -3 4 7 20 22 34
15 14 33 33 40 42 12 14 17 14 52 -6 22 -13 36 -27 33 -33 -4 -6 1 -5 10 3 9
7 17 16 17 19 0 3 -3 2 -6 -1 -4 -3 -15 -2 -26 4 -18 10 -18 12 -4 28 9 10 13
21 9 26 -5 4 0 5 10 2 11 -4 16 -3 12 3 -3 6 1 20 9 32 9 12 16 18 16 13 1 -6
8 4 17 20 10 17 16 35 15 42 -1 6 2 14 8 18 5 3 10 -1 10 -9 0 -8 4 -17 9 -20
5 -4 7 3 4 15 -3 11 -12 23 -19 26 -8 3 -11 10 -7 16 3 6 1 7 -5 3 -6 -4 -8
-14 -5 -23 5 -11 3 -14 -6 -8 -10 6 -11 3 -2 -14 7 -13 8 -21 2 -21 -16 0 -22
17 -15 44 7 31 35 42 50 22 6 -9 15 -16 19 -16 5 0 -2 11 -15 26 -19 19 -21
27 -11 33 7 5 12 11 12 15 -3 20 0 27 12 23 6 -2 12 -10 12 -18 1 -8 6 -13 12
-12 7 2 22 -10 35 -25 13 -16 39 -37 58 -48 19 -10 41 -25 48 -32 8 -7 18 -10
23 -7 5 4 15 3 21 -2 17 -10 52 -10 59 0 3 5 9 2 12 -6 4 -11 -1 -14 -18 -12
-14 1 -22 -1 -20 -6 3 -4 2 -9 -2 -12 -5 -2 -1 -2 7 0 38 11 49 11 54 -3 6
-16 53 -3 49 15 -3 12 24 10 44 -2 9 -6 11 -3 7 7 -3 9 -1 16 4 16 6 0 13 -10
15 -22 5 -21 5 -20 4 2 -2 28 9 50 25 50 6 0 6 -6 -2 -15 -7 -9 -10 -18 -7
-21 3 -3 13 8 23 25 10 16 21 28 26 25 4 -3 8 0 8 6 0 6 5 8 11 5 6 -4 5 2 -2
13 -7 12 -17 18 -22 15 -5 -3 -3 -9 4 -14 12 -7 11 -9 -1 -10 -8 -1 -18 -1
-22 0 -5 0 -8 -4 -8 -9 0 -6 -8 -10 -17 -8 -10 2 -17 -2 -16 -9 4 -17 -30 -33
-56 -28 -18 3 -25 -5 -23 -26 1 -4 -7 -9 -17 -12 -13 -3 -22 3 -29 18 -10 22
-9 23 14 19 14 -3 23 -1 20 4 -3 5 8 8 25 7 24 -2 29 1 24 13 -5 13 -3 13 12
1 10 -8 14 -9 10 -2 -5 7 1 16 13 23 11 6 20 8 20 5 0 -4 30 23 67 60 50 50
69 63 77 54 8 -9 8 -10 -1 -5 -8 4 -11 0 -8 -13 2 -11 -3 -22 -10 -25 -10 -3
-12 1 -9 12 3 9 -2 5 -11 -10 -8 -16 -18 -28 -21 -28 -3 0 -2 5 2 12 4 6 3 8
-4 5 -13 -9 -9 -36 7 -46 10 -6 9 -12 -3 -24 -15 -14 -15 -16 3 -14 12 1 17 6
13 16 -4 10 -1 12 9 6 12 -8 12 -6 1 8 -12 13 -11 20 1 37 9 12 18 17 21 11 4
-5 2 -12 -4 -16 -15 -9 -12 -22 4 -22 8 0 12 6 8 15 -4 11 -2 13 9 7 11 -7 12
-6 3 6 -19 25 -13 50 10 43 12 -3 16 -2 10 3 -17 13 -36 52 -29 63 4 6 13 7
23 2 9 -5 28 -6 42 -1 17 5 19 7 7 8 -10 1 -15 6 -12 11 4 6 10 8 15 5 4 -3
11 3 15 12 3 10 2 19 -3 21 -5 1 -18 9 -28 17 -15 12 -16 16 -6 23 8 5 13 12
13 16 -1 3 0 7 0 9 3 5 9 105 10 162 2 66 -5 124 -19 170 -6 22 -5 36 6 53 8
12 12 25 9 28 -3 3 -8 -4 -12 -15 -3 -12 -11 -21 -16 -21 -13 0 -11 14 4 29 7
9 7 11 1 8 -15 -8 -27 20 -13 29 5 3 18 0 27 -8 15 -12 16 -11 3 5 -9 11 -21
15 -33 11 -19 -6 -19 -5 -2 20 9 15 14 29 11 32 -3 3 -8 -4 -12 -15 -3 -12
-11 -19 -16 -16 -5 4 -4 15 3 28 17 30 18 47 5 44 -7 -1 -11 3 -10 10 2 7 -4
10 -13 6 -11 -4 -12 -8 -4 -13 9 -5 9 -9 1 -14 -6 -4 -12 -2 -12 3 -3 20 -5
26 -17 48 -8 14 -9 24 -2 28 13 8 13 25 -1 25 -5 0 -7 -4 -4 -10 3 -5 1 -10
-4 -10 -15 0 -14 13 2 29 10 11 9 13 -5 8 -12 -4 -18 -1 -18 9 0 9 5 12 13 8
6 -4 3 2 -7 14 -21 25 -36 31 -16 7 9 -10 9 -15 1 -15 -10 0 -13 7 -10 26 0 4
-5 11 -13 16 -9 6 -5 7 11 3 16 -5 21 -4 17 4 -4 6 -16 11 -27 11 -11 0 -17 4
-14 10 3 5 17 9 30 8 13 -1 22 -5 20 -8 -2 -3 10 -21 26 -39 16 -19 27 -36 24
-39 -3 -3 -12 3 -21 14 -14 18 -15 18 -4 -3 6 -13 17 -23 26 -23 8 0 18 -8 21
-17 4 -10 11 -21 17 -25 6 -4 5 -13 -5 -25 -12 -16 -12 -17 2 -6 19 15 22 12
89 -87 24 -36 51 -70 60 -77 8 -7 11 -13 6 -13 -5 0 1 -8 12 -19 12 -10 22
-24 22 -30 0 -7 4 -9 10 -6 6 3 10 2 10 -3 0 -5 30 -40 68 -77 37 -37 66 -73
64 -79 -2 -6 -1 -8 3 -4 4 4 34 -12 67 -34 44 -30 56 -43 46 -50 -9 -6 -6 -7
9 -3 14 4 33 -1 50 -12 15 -10 28 -17 30 -15 9 7 23 0 17 -10 -5 -7 -3 -8 7
-2 21 13 39 14 39 2 0 -6 -8 -7 -17 -3 -14 5 -15 4 -6 -6 10 -10 15 -9 27 0
16 14 63 22 83 14 6 -3 9 -11 6 -19 -3 -8 0 -14 7 -14 6 0 8 4 5 10 -3 6 -2
10 4 10 5 0 12 -6 15 -12 5 -10 7 -10 12 -1 3 7 12 9 20 6 7 -3 11 -10 7 -16
-4 -6 -1 -7 7 -2 10 6 6 13 -14 27 -14 11 -23 25 -20 30 4 7 2 8 -5 4 -9 -6
-9 -11 0 -22 14 -17 -2 -19 -22 -2 -8 7 -12 12 -10 10 2 -1 13 5 23 15 10 9
18 12 18 7 0 -5 10 2 21 16 11 14 18 19 14 13 -4 -8 1 -13 12 -13 15 0 15 -2
3 -9 -8 -6 -18 -7 -22 -5 -4 3 -5 -3 -2 -13 5 -15 4 -16 -5 -3 -7 10 -11 11
-11 3 0 -7 9 -17 21 -24 17 -9 23 -7 35 10 9 12 21 18 32 15 12 -4 13 -3 4 3
-10 7 -8 14 9 29 22 19 22 19 15 -6 -6 -19 -5 -21 3 -10 19 26 13 42 -11 35
-21 -7 -22 -6 -7 10 16 16 18 16 45 0 16 -9 22 -11 14 -4 -17 16 -27 54 -12
45 6 -3 17 -3 26 0 15 6 15 7 0 19 -12 8 -14 14 -6 19 7 4 12 2 12 -3 0 -6 8
-11 17 -11 16 0 15 1 -1 13 -11 8 -15 19 -10 30 9 24 27 21 19 -3 -4 -12 -2
-20 5 -20 6 0 8 5 5 10 -3 6 -1 10 6 10 8 0 8 4 -1 15 -13 15 -2 21 16 8 5 -5
1 0 -9 10 -11 9 -16 18 -13 18 3 1 10 2 15 3 5 0 13 5 18 10 5 5 3 6 -4 2 -7
-4 -13 -3 -13 3 0 5 8 12 18 14 16 4 16 5 0 6 -10 0 -22 -8 -28 -20 -7 -11
-18 -18 -25 -15 -9 3 -12 -1 -10 -14 2 -10 -3 -21 -11 -24 -7 -3 -11 -12 -8
-21 3 -8 1 -15 -5 -15 -6 0 -11 9 -11 20 0 11 5 20 10 20 6 0 10 6 10 13 0 21
24 67 35 66 23 -3 36 2 31 10 -3 5 1 12 10 15 12 4 15 2 10 -9 -3 -8 -1 -15 4
-15 11 0 14 23 4 33 -10 10 -54 -15 -47 -27 4 -7 2 -7 -7 1 -9 9 -8 15 7 30
11 11 26 18 34 15 11 -3 11 -2 -1 7 -11 8 -18 7 -27 -5 -10 -14 -12 -14 -10 5
1 11 6 22 12 22 5 1 16 2 22 3 7 0 13 4 13 9 0 4 0 12 0 17 0 6 -8 10 -17 10
-15 0 -14 -2 3 -14 19 -15 19 -15 -2 -13 -18 1 -21 7 -20 39 1 21 -2 38 -7 38
-5 0 -4 7 3 15 10 12 9 15 -5 15 -11 0 -15 5 -12 14 3 8 1 17 -6 20 -7 4 -2 4
10 2 15 -2 20 0 16 9 -2 8 -13 12 -24 10 -20 -4 -26 14 -9 31 7 7 6 11 -4 11
-8 0 -12 -5 -9 -10 3 -6 1 -7 -5 -3 -12 7 -62 108 -62 125 0 5 -6 11 -12 14
-10 3 -10 9 1 28 10 19 10 21 0 12 -17 -17 -29 -16 -29 1 0 8 8 17 18 20 10 3
8 4 -7 3 -13 -1 -26 4 -28 11 -3 7 1 10 10 6 18 -7 32 12 16 22 -8 4 -9 3 -5
-4 7 -11 0 -11 -43 -3 -2 1 3 9 10 18 8 9 10 14 4 11 -5 -3 -16 0 -23 8 -7 8
-10 14 -7 14 4 0 -1 7 -9 16 -9 8 -16 24 -16 35 0 11 -4 17 -10 14 -5 -3 -10
0 -10 8 0 7 -14 39 -31 71 -17 31 -32 64 -34 74 -2 9 -4 17 -5 17 -1 0 -3 9
-5 20 -5 28 13 47 35 35 9 -5 19 -8 21 -5 3 2 15 -5 29 -16 24 -19 25 -20 6
-34 -17 -13 -18 -17 -6 -28 7 -6 10 -7 7 -1 -3 6 3 18 14 27 10 9 19 12 19 7
0 -6 7 -10 15 -10 8 0 15 -4 15 -10 0 -5 6 -10 13 -10 20 0 59 -40 53 -56 -3
-7 -1 -16 4 -19 4 -3 7 6 6 19 l-3 24 41 -25 c23 -15 47 -33 54 -42 8 -10 11
-10 6 -2 -5 10 -3 12 7 5 14 -9 19 -10 40 -13 5 0 7 -5 4 -11 -3 -6 1 -7 10
-4 8 4 22 1 30 -6 8 -7 15 -9 15 -4 0 5 7 0 15 -10 8 -11 15 -15 15 -10 0 5
14 10 30 9 18 0 28 -5 26 -11 -2 -6 0 -17 5 -25 7 -12 9 -12 10 1 1 8 1 18 0
23 -1 8 0 8 44 12 43 4 58 8 72 21 16 15 59 12 56 -4 -2 -7 1 -12 6 -12 5 0 8
11 7 24 -1 16 -6 22 -16 19 -8 -2 -4 2 10 10 14 9 28 13 33 10 5 -3 7 1 5 8
-1 8 1 14 5 14 4 0 21 21 38 48 17 26 36 47 41 47 5 0 6 4 3 10 -3 5 -1 10 4
10 6 0 11 5 11 11 0 7 8 18 18 26 11 10 12 12 2 8 -12 -5 -12 -4 1 7 9 7 14
19 12 26 -3 6 0 12 7 12 6 0 8 6 4 13 -5 9 -3 9 7 -1 10 -9 11 -15 3 -20 -6
-4 -10 -15 -8 -25 1 -9 -7 -23 -18 -31 -13 -9 -17 -19 -12 -28 4 -7 4 -10 -1
-6 -11 10 -44 -34 -40 -54 4 -18 -9 -25 -18 -10 -2 4 -2 1 0 -6 1 -8 -2 -10
-9 -6 -7 4 -8 3 -4 -4 5 -8 13 -9 25 -3 10 6 26 9 37 7 10 -2 13 -1 6 1 -7 3
-10 9 -7 14 3 5 0 6 -8 3 -8 -3 -14 1 -14 10 0 9 8 14 21 13 15 -1 21 3 20 16
-1 10 3 16 10 14 6 -2 9 -13 8 -23 -3 -15 -1 -16 9 -7 9 10 10 15 0 27 -10 11
-8 17 11 31 l23 17 -25 -8 c-22 -6 -23 -5 -11 9 10 13 18 14 33 6 11 -6 22 -8
26 -5 3 3 0 6 -7 6 -7 0 -9 4 -6 10 4 6 -1 7 -11 3 -12 -4 -15 -3 -10 5 4 6 0
24 -8 40 -9 17 -11 34 -6 42 10 17 43 23 37 7 -2 -7 -9 -12 -15 -12 -7 0 -12
-3 -12 -7 0 -5 0 -11 0 -14 0 -4 7 -1 15 6 16 14 21 0 5 -16 -6 -6 -5 -15 1
-24 9 -12 10 -12 5 3 -3 11 0 20 9 23 8 4 13 10 10 15 -3 4 7 15 22 23 15 8
24 15 20 16 -5 0 -18 -5 -29 -11 -18 -10 -20 -9 -15 6 4 9 7 18 7 21 0 2 8 1
18 -2 13 -5 14 -4 3 4 -8 6 -21 8 -30 5 -10 -3 -7 4 8 16 12 12 27 18 32 15 5
-3 4 6 -3 20 -11 25 -12 25 -30 9 -12 -11 -15 -19 -8 -21 8 -3 8 -8 -1 -18
-25 -31 -34 -9 -12 31 6 11 9 30 7 43 -3 17 1 22 17 22 11 0 17 -5 14 -10 -4
-6 -10 -8 -14 -6 -4 3 -8 -1 -8 -8 0 -8 6 -12 14 -9 7 3 13 9 13 15 0 5 6 6
13 2 8 -5 8 -2 -2 9 -10 13 -11 20 -2 30 8 10 7 17 -1 25 -15 15 3 16 20 2 9
-7 9 -7 2 2 -17 20 -11 32 8 15 16 -15 18 -15 18 2 0 12 -5 17 -15 13 -10 -4
-12 -1 -6 9 7 12 6 12 -7 1 -20 -16 -53 -5 -38 13 5 6 7 15 4 18 -4 3 1 13 9
21 11 12 17 13 20 3 2 -6 7 -9 11 -6 3 3 -3 14 -15 25 -13 12 -19 14 -17 5 2
-7 -4 -16 -12 -18 -9 -3 -11 -1 -4 4 8 6 12 68 4 68 -2 0 -7 48 -9 93 -1 13
-5 20 -11 17 -8 -5 -12 7 -9 31 0 3 -9 14 -20 23 -11 10 -18 21 -14 25 3 3 -1
6 -10 6 -9 0 -17 4 -17 9 0 5 -13 14 -30 21 -16 7 -28 15 -26 19 2 3 -12 7
-32 9 -24 1 -43 10 -54 25 -24 30 -22 44 2 22 20 -18 21 -18 14 1 -7 17 -6 17
9 5 9 -7 15 -17 12 -21 -3 -4 2 -11 11 -14 9 -3 12 -2 9 5 -4 6 1 19 10 29 15
17 16 22 4 37 -12 15 -12 16 4 10 13 -5 26 1 43 20 26 28 29 39 14 48 -6 4 -7
-1 -4 -12 4 -14 3 -15 -4 -4 -7 9 -12 10 -16 2 -4 -6 -2 -11 3 -11 6 0 3 -8
-6 -18 -12 -12 -21 -14 -25 -8 -5 7 -11 6 -17 -4 -6 -9 -6 -19 1 -27 12 -15
-8 -47 -24 -37 -6 4 -5 10 3 15 11 8 11 12 -3 23 -22 16 -23 27 -3 20 9 -4 15
0 15 10 0 15 11 20 37 17 7 -1 10 4 7 12 -2 7 6 19 20 26 14 8 30 27 37 42 6
16 18 29 25 29 8 0 13 3 12 8 -3 15 14 62 23 62 6 0 5 -9 -1 -21 -7 -11 -9
-23 -6 -27 3 -3 6 0 6 7 0 7 5 9 10 6 18 -11 42 17 36 41 -5 17 -2 22 12 19 9
-1 11 0 3 2 -12 4 -12 6 0 14 8 5 10 9 4 9 -5 0 -21 -10 -35 -21 -14 -11 -19
-17 -11 -13 10 5 12 3 7 -5 -5 -7 -11 -9 -15 -6 -11 11 -7 30 8 36 8 3 15 15
16 27 1 11 -2 19 -6 16 -8 -4 -2 47 6 55 2 2 0 13 -6 24 -8 15 -8 18 1 12 8
-5 10 -2 6 11 -3 11 -7 30 -10 44 -3 14 -9 39 -15 57 -5 17 -6 35 -3 39 4 4 2
4 -4 1 -6 -3 -17 4 -23 17 -7 12 -28 28 -47 35 -37 13 -128 13 -155 0 -9 -5
-31 -11 -49 -14 -18 -3 -48 -12 -66 -20 -19 -8 -34 -11 -34 -8 0 3 -6 0 -14
-6 -11 -9 -16 -9 -22 0 -4 7 -3 9 3 6 6 -4 16 0 23 8 7 8 17 12 23 8 6 -4 8 0
4 10 -4 12 2 21 21 31 15 9 23 15 18 16 -5 0 10 17 33 39 22 21 39 40 38 43
-1 2 8 -7 21 -20 20 -21 28 -17 23 11 0 4 4 7 10 7 8 0 7 5 -1 16 -11 12 -10
18 4 32 17 16 18 16 11 -5 -4 -15 -2 -23 5 -23 6 0 8 5 5 10 -3 6 -1 10 6 10
8 0 7 5 -2 16 -12 15 -11 16 11 10 21 -6 22 -5 7 4 -13 9 -22 9 -32 0 -7 -6
-15 -7 -17 -3 -3 4 -3 2 -1 -5 1 -7 -1 -10 -6 -7 -5 3 -8 -8 -6 -23 2 -20 -1
-29 -10 -29 -21 0 -27 25 -9 35 9 5 15 11 14 13 -1 2 3 22 8 44 13 47 13 103
0 111 -4 3 -6 9 -3 14 6 10 -12 36 -66 92 -20 21 -33 40 -30 44 3 3 2 4 -4 3
-5 -2 -30 5 -55 15 -56 24 -63 25 -130 28 -30 1 -65 -4 -76 -10 -12 -6 -24 -8
-28 -5 -3 3 -6 1 -6 -6 0 -8 -7 -11 -15 -7 -8 3 -15 2 -15 -2 0 -4 -20 -20
-45 -36 -25 -15 -52 -37 -59 -48 -11 -16 -21 -19 -43 -14 -15 4 -34 7 -40 8
-14 1 -17 11 -6 21 3 4 18 0 32 -10 24 -15 25 -15 12 0 -11 14 -11 20 0 33 10
12 10 17 0 23 -10 6 -9 10 3 14 9 4 16 1 16 -5 0 -6 3 -8 6 -5 4 4 1 13 -6 22
-14 17 0 21 16 5 7 -7 11 -6 11 3 0 19 -52 16 -69 -3 -11 -12 -11 -12 4 -2 10
8 19 9 22 3 4 -5 -3 -12 -14 -16 -11 -4 -17 -11 -14 -17 5 -7 2 -8 -6 -3 -8 5
-11 4 -6 -3 4 -6 14 -8 24 -5 15 6 15 4 4 -10 -8 -8 -20 -13 -28 -10 -8 3 -15
-1 -16 -8 -3 -30 -4 -35 -16 -55 -6 -12 -8 -24 -5 -28 3 -3 1 -6 -5 -6 -13 0
-9 34 8 75 7 17 14 33 15 38 2 4 4 9 5 12 1 3 3 8 4 13 1 4 7 17 14 28 6 12 8
24 5 28 -3 3 -1 6 5 6 7 0 11 3 11 8 -3 19 2 33 11 27 6 -4 8 6 6 23 -2 23 1
29 13 27 9 -2 20 -4 24 -4 5 -1 5 -6 2 -11 -4 -6 -10 -8 -15 -5 -14 9 -21 -12
-7 -23 12 -9 52 -13 42 -4 -3 3 3 12 13 20 12 10 8 9 -10 -2 -37 -22 -48 -20
-19 4 13 11 19 20 14 20 -5 0 -10 7 -10 15 0 8 4 15 9 15 4 0 8 8 8 17 0 9 10
27 22 40 18 19 19 23 5 17 -12 -4 -17 -2 -15 6 2 8 -8 19 -22 27 -26 13 -23
16 20 15 20 -1 21 0 5 5 -31 8 -42 22 -25 33 10 7 11 10 2 10 -6 0 -11 3 -10
8 2 4 -3 21 -10 39 -18 42 -58 57 -124 49 -66 -9 -112 -33 -178 -94 -30 -28
-59 -48 -64 -45 -5 3 -6 1 -2 -5 7 -12 -33 -44 -45 -36 -4 2 -11 0 -14 -6 -4
-6 -3 -9 2 -8 17 6 11 -13 -12 -36 -15 -15 -26 -20 -29 -13 -2 7 -5 3 -5 -8
-1 -28 -35 -49 -51 -30 -12 15 3 31 20 20 6 -3 14 5 20 19 6 16 15 24 24 20
18 -7 31 12 15 22 -8 4 -9 3 -5 -4 4 -7 3 -12 -3 -12 -20 0 -21 20 -1 32 11 7
20 17 20 22 0 5 -9 1 -20 -9 -11 -10 -20 -13 -20 -7 0 6 5 14 10 17 6 4 9 14
8 22 -2 9 4 18 12 21 8 3 12 1 8 -3 -4 -5 -3 -14 3 -22 15 -17 40 2 32 24 -4
10 -2 14 5 9 6 -3 13 -2 16 3 4 5 -2 8 -11 7 -10 -2 -18 -12 -18 -22 0 -10 -5
-18 -10 -16 -6 1 -10 7 -10 12 0 14 -27 30 -37 24 -5 -3 -5 -10 -2 -16 4 -6 3
-8 -3 -5 -5 3 -9 -4 -8 -16 1 -12 -2 -28 -8 -34 -6 -9 -6 -13 2 -13 8 0 7 -5
-2 -15 -9 -8 -13 -25 -11 -37 2 -13 2 -17 -2 -10 -3 6 -9 10 -13 8 -4 -3 -8 1
-8 9 0 8 3 15 7 15 4 0 7 6 8 13 3 34 15 83 23 93 5 6 5 15 1 19 -4 5 -1 4 7
0 11 -6 13 -4 7 11 -4 10 -4 15 0 11 4 -4 13 -2 21 4 9 9 13 8 13 0 0 -6 -6
-11 -12 -11 -7 0 -5 -5 6 -11 14 -9 21 -8 32 5 8 9 9 11 2 6 -19 -15 -32 -12
-18 5 10 12 10 15 -1 15 -11 0 -11 2 1 10 12 7 10 9 -7 7 -12 0 -19 -5 -17 -9
3 -4 -2 -8 -10 -8 -19 0 -6 42 15 48 11 3 11 1 -1 -8 -13 -10 -12 -11 4 -6 10
4 24 2 31 -4 9 -8 15 -8 20 0 4 6 3 10 -2 9 -20 -4 -24 2 -12 19 11 14 11 15
-1 5 -23 -21 -35 -15 -15 7 12 13 22 17 29 11 8 -7 12 -4 12 9 0 18 -2 18 -24
4 -32 -21 -39 -11 -10 12 13 11 28 26 33 34 6 11 3 10 -12 -2 -21 -19 -38 -24
-28 -9 3 5 -4 12 -15 16 -11 4 -18 11 -14 16 3 5 10 7 15 4 5 -3 6 1 3 9 -3 9
-10 14 -14 11 -5 -3 -7 6 -5 20 1 14 -2 28 -7 31 -4 3 -6 10 -3 15 4 5 1 9 -5
9 -6 0 -9 4 -6 9 7 10 -61 85 -91 100 -62 31 -149 -4 -189 -76 -9 -18 -21 -33
-26 -33 -4 0 -8 -6 -8 -14 0 -7 -7 -19 -15 -26 -8 -7 -12 -16 -9 -21 11 -19
-26 -8 -47 14 l-21 22 12 -24 c11 -21 10 -23 -4 -18 -10 4 -15 3 -11 -3 3 -6
2 -10 -2 -10 -5 0 -9 18 -9 40 1 22 4 40 7 40 3 0 4 21 2 46 -2 28 0 43 6 39
6 -3 8 -12 5 -19 -3 -7 2 -16 11 -20 11 -4 14 -2 8 7 -4 6 -8 18 -10 26 -1 8
-9 18 -17 23 -9 5 -16 20 -16 34 0 39 -50 84 -93 84 -35 0 -127 -26 -137 -39
-3 -3 -18 -13 -35 -21 -36 -18 -179 -161 -180 -180 0 -3 -8 -16 -17 -30 -9
-14 -19 -35 -23 -47 -3 -13 -10 -23 -15 -23 -5 0 -7 8 -3 18 3 9 3 14 -2 10
-4 -4 -9 -24 -10 -45 0 -20 -7 -39 -13 -41 -7 -2 -9 -8 -6 -13 3 -6 -2 -21
-11 -35 -9 -13 -13 -30 -9 -36 4 -6 3 -8 -4 -4 -6 3 -13 2 -17 -4 -3 -5 -1
-10 5 -10 6 0 8 -5 3 -12 -4 -7 -8 -19 -9 -26 -2 -8 -6 -17 -10 -20 -4 -4 -4
1 -1 11 4 9 2 17 -4 17 -6 0 -7 6 -2 13 4 6 8 21 9 32 1 11 5 40 9 65 4 25 7
57 7 73 0 15 5 27 10 27 5 0 6 5 3 10 -3 6 -2 10 4 10 5 0 13 -4 16 -10 3 -5
2 -10 -4 -10 -5 0 -8 -8 -6 -17 1 -10 -3 -24 -9 -32 -8 -11 -8 -13 2 -7 15 9
16 -6 1 -21 -14 -14 -21 -66 -9 -58 5 3 7 12 3 20 -3 8 0 15 7 15 6 0 9 4 5 9
-3 5 0 13 6 16 5 4 8 13 5 21 -3 7 -1 16 5 19 5 4 7 10 4 15 -3 5 -1 19 5 30
9 17 8 19 -7 13 -16 -6 -16 -5 -4 10 7 9 18 14 24 10 6 -3 7 -1 3 5 -4 7 -2
12 3 12 6 0 11 5 11 11 0 8 -4 8 -12 2 -20 -15 -62 -15 -50 0 5 7 8 29 7 50
-1 35 0 38 22 32 13 -3 23 -1 23 5 0 5 -3 9 -7 9 -25 -4 -34 3 -31 24 2 15 9
21 23 20 11 -1 14 0 8 3 -7 3 -13 10 -13 15 0 6 6 7 13 3 9 -6 9 -4 -1 8 -11
14 -10 18 5 27 11 6 13 11 5 11 -7 0 -10 5 -6 12 4 7 3 8 -4 4 -7 -4 -20 -2
-29 4 -16 10 -16 11 -1 6 15 -4 14 0 -4 30 -11 19 -17 34 -14 34 12 0 -26 65
-52 88 -14 12 -35 23 -46 23 -12 1 -34 3 -51 4 -16 2 -50 -3 -75 -11z m260
-209 c-5 -6 -8 -14 -5 -17 3 -3 0 -10 -8 -16 -10 -9 -12 -4 -9 23 3 24 8 32
18 28 10 -4 11 -9 4 -18z m-15 -224 c-3 -6 -11 -11 -17 -11 -6 0 -6 6 2 15 14
17 26 13 15 -4z m599 -17 c9 -3 13 -10 10 -16 -3 -5 -13 -4 -22 4 -15 12 -16
11 -3 -5 8 -9 11 -21 7 -24 -4 -4 -11 -1 -16 7 -6 9 -10 10 -10 3 0 -7 8 -17
18 -22 16 -10 16 -10 0 -11 -11 0 -15 -5 -12 -15 4 -8 1 -22 -6 -30 -7 -8 -9
-15 -5 -15 4 0 2 -6 -4 -13 -6 -8 -7 -18 -3 -22 4 -5 1 -5 -6 -1 -10 6 -10 11
-1 22 9 11 8 14 -2 14 -11 0 -11 3 1 11 13 9 13 10 0 6 -10 -2 -14 -14 -13
-33 3 -51 -7 -82 -30 -87 -21 -6 -21 -6 -3 8 13 10 15 15 6 15 -9 0 -8 5 6 16
10 8 14 13 8 10 -19 -9 -4 66 15 80 12 9 18 9 24 1 6 -8 7 -7 4 3 -2 8 -11 14
-20 12 -18 -3 -32 14 -18 23 6 3 8 12 5 19 -3 8 -1 17 4 20 5 3 8 -6 6 -19 -1
-14 1 -25 6 -25 4 0 8 12 8 26 0 15 6 30 13 35 17 11 14 10 33 3z m398 -86
c-6 -6 -8 -17 -5 -24 3 -8 0 -14 -6 -14 -6 0 -9 15 -7 38 6 50 5 49 17 29 8
-13 8 -22 1 -29z m-489 -163 c-3 -9 -8 -14 -10 -11 -3 3 -2 9 2 15 9 16 15 13
8 -4z m954 -76 c1 -11 -4 -22 -12 -25 -8 -3 -11 -12 -8 -20 3 -7 -3 -17 -12
-20 -13 -5 -14 -9 -3 -15 7 -5 9 -9 3 -9 -5 0 -17 5 -25 10 -11 7 -11 10 -2
10 7 0 10 5 6 11 -4 7 4 20 17 30 20 15 22 20 11 31 -11 11 -12 10 -7 -4 4
-10 3 -18 -3 -18 -11 0 -11 18 1 37 11 17 33 6 34 -18z m-89 -365 c-13 -12
-27 -21 -33 -20 -5 0 -9 -4 -8 -11 3 -12 -34 -10 -46 3 -3 4 2 4 12 1 9 -4 17
-3 18 1 6 56 23 74 55 60 l25 -12 -23 -22z m826 -738 c-6 -16 -24 -23 -24 -8
0 10 22 33 27 28 2 -2 1 -11 -3 -20z m-239 -197 c-4 -6 2 -13 14 -16 28 -7 17
-22 -14 -18 -14 1 -28 -1 -30 -6 -3 -4 -14 -6 -25 -4 -12 2 -18 0 -15 -6 4 -5
11 -7 16 -4 5 4 9 -2 10 -12 0 -11 3 -13 6 -5 2 6 9 10 14 6 19 -11 8 -20 -25
-19 -19 0 -32 3 -29 7 2 5 0 15 -5 24 -6 11 -11 13 -16 5 -4 -6 -2 -11 4 -11
6 0 8 -5 5 -11 -5 -6 -12 -4 -21 8 -13 16 -14 16 -8 1 4 -12 1 -18 -10 -18 -9
0 -16 6 -16 13 0 9 -3 8 -9 -2 -6 -8 -16 -11 -31 -6 -12 4 -20 3 -17 -1 5 -9
-77 -13 -86 -4 -5 5 15 7 90 11 18 1 30 6 27 10 -2 4 4 6 16 4 11 -2 22 1 25
6 4 5 10 7 15 4 5 -3 11 -1 15 4 3 5 14 8 24 6 11 -2 22 3 25 10 3 8 13 11 26
8 11 -3 20 -2 19 3 -2 14 0 24 7 24 3 0 2 -5 -1 -11z m-308 -85 c-3 -3 -12 -4
-19 -1 -8 3 -5 6 6 6 11 1 17 -2 13 -5z m540 -428 c-3 -7 -1 -18 4 -23 6 -6 5
-14 -4 -22 -12 -10 -15 -6 -14 24 1 19 5 35 10 35 5 0 7 -6 4 -14z m3 -136 c0
-5 -4 -10 -10 -10 -5 0 -10 5 -10 10 0 6 5 10 10 10 6 0 10 -4 10 -10z m-36
-59 c4 -5 -1 -8 -9 -7 -21 3 -31 16 -12 16 9 0 18 -4 21 -9z m-43 -114 c-10
-9 -11 -8 -5 6 3 10 9 15 12 12 3 -3 0 -11 -7 -18z m-21 -47 c0 -5 -5 -10 -11
-10 -5 0 -7 5 -4 10 3 6 8 10 11 10 2 0 4 -4 4 -10z m-20 -40 c0 -5 -4 -10
-10 -10 -5 0 -10 5 -10 10 0 6 5 10 10 10 6 0 10 -4 10 -10z m-1719 -303 c-10
-9 -11 -8 -5 6 3 10 9 15 12 12 3 -3 0 -11 -7 -18z m24 -17 c-3 -5 1 -10 9
-10 8 0 18 -9 21 -20 3 -11 11 -20 16 -20 5 0 9 -7 9 -15 0 -8 -2 -15 -4 -15
-2 0 -11 -2 -19 -6 -10 -3 -16 4 -20 24 -3 16 -13 36 -21 45 -15 14 -12 27 6
27 5 0 6 -4 3 -10z m154 -336 c-15 -18 -22 -13 -13 10 3 9 10 13 16 10 5 -3 4
-12 -3 -20z m935 -314 c-3 -2 -9 1 -13 9 -6 10 -10 9 -15 -4 -3 -9 -4 -21 -1
-26 4 -5 0 -6 -8 -3 -8 3 -20 -2 -27 -11 -14 -17 -30 -20 -30 -6 0 5 7 16 15
24 8 8 11 17 8 20 -3 4 4 5 16 2 11 -2 21 0 21 6 0 5 -5 9 -10 9 -6 0 -5 6 2
14 11 13 15 12 30 -7 9 -12 14 -24 12 -27z m-88 -60 c22 0 17 -14 -16 -45 -24
-23 -30 -25 -30 -11 0 9 4 15 8 12 4 -2 13 4 20 15 7 10 8 18 3 17 -9 -3 -12
3 -10 25 0 10 2 10 6 0 2 -7 11 -13 19 -13z m-779 -213 c4 -6 0 -8 -11 -4 -10
4 -15 3 -11 -3 3 -6 -1 -13 -9 -16 -9 -3 -13 -11 -9 -18 4 -6 -1 -5 -10 3 -18
14 -13 36 6 24 8 -5 8 -2 0 9 -7 8 -10 17 -7 20 7 8 43 -2 51 -15z m-117 -151
c0 -2 -8 -10 -17 -17 -16 -13 -17 -12 -4 4 13 16 21 21 21 13z m-610 -122 c0
-7 -9 -16 -21 -19 -11 -4 -18 -9 -15 -13 4 -3 -4 -16 -16 -29 -12 -13 -18 -23
-14 -23 4 0 0 -7 -9 -16 -14 -15 -18 -15 -30 -3 -13 12 -10 19 16 47 16 17 35
32 40 32 6 0 7 5 3 12 -5 7 -3 8 6 3 10 -6 12 -4 7 8 -3 10 -2 17 4 17 6 0 7
6 3 13 -5 8 -2 8 9 -2 9 -7 17 -19 17 -27z m-240 -304 c0 -5 -2 -10 -4 -10 -3
0 -8 5 -11 10 -3 6 -1 10 4 10 6 0 11 -4 11 -10z m-320 -242 c-5 -15 -9 -31
-9 -33 -3 -25 -15 -55 -23 -55 -5 0 -7 -4 -4 -9 3 -5 -1 -15 -10 -22 -13 -11
-21 -7 -50 25 -19 21 -32 42 -29 47 4 5 1 9 -4 9 -6 0 -11 5 -11 11 0 5 5 7
10 4 6 -3 10 -1 10 5 0 6 4 9 9 6 5 -3 12 1 15 10 4 9 9 14 13 10 3 -3 14 1
23 9 15 14 18 14 23 1 4 -11 1 -13 -11 -10 -12 4 -14 3 -4 -3 10 -8 10 -12 -3
-23 -10 -8 -15 -9 -15 -1 0 7 -7 8 -23 0 -13 -6 -24 -18 -24 -26 0 -14 2 -14
12 1 7 9 18 16 25 16 9 0 7 -7 -6 -22 -10 -12 -14 -18 -7 -15 6 4 13 4 16 0 2
-5 2 -3 1 4 -2 6 4 17 12 23 11 10 17 10 29 0 10 -9 15 -9 15 -1 0 6 -4 11
-10 11 -5 0 -10 5 -10 11 0 6 6 9 13 6 8 -3 14 1 14 9 0 8 -4 14 -9 14 -13 0
-9 28 5 33 19 6 26 -12 17 -45z m-500 -158 c0 -5 -5 -10 -11 -10 -5 0 -7 5 -4
10 3 6 8 10 11 10 2 0 4 -4 4 -10z m-135 -148 c7 -18 -4 -35 -19 -29 -6 3 -20
-1 -31 -9 -10 -8 -13 -14 -6 -14 7 0 9 -5 6 -10 -4 -6 -1 -18 7 -27 12 -15 11
-15 -10 -4 -13 7 -21 15 -18 18 3 3 1 13 -4 23 -11 21 21 56 41 44 8 -5 11 -2
7 8 -4 8 0 15 8 15 7 0 16 -7 19 -15z m-79 -77 c4 -30 -6 -38 -27 -19 -15 13
-16 20 -7 31 14 18 30 12 34 -12z m-51 -24 c-3 -5 -1 -12 5 -16 10 -6 9 -40
-3 -51 -4 -4 -13 -1 -22 6 -9 8 -15 8 -15 2 0 -6 -9 -9 -20 -7 -15 3 -20 -1
-18 -13 2 -11 -4 -17 -20 -18 -20 -1 -18 3 20 40 23 22 45 40 50 39 4 -2 8 4
8 12 0 8 5 15 11 15 5 0 8 -4 4 -9z m-590 -450 c-3 -5 4 -13 16 -16 l21 -7
-22 -15 c-16 -11 -25 -12 -33 -4 -15 15 -30 14 -21 -1 4 -8 2 -8 -7 1 -9 9
-10 15 -3 18 6 2 20 10 30 18 22 17 27 18 19 6z m-65 -42 c0 -5 -4 -8 -9 -5
-5 3 -14 -1 -21 -9 -9 -10 -9 -15 -1 -15 6 0 11 -4 11 -10 0 -5 -6 -9 -12 -7
-7 1 -12 -6 -12 -15 2 -21 -17 -19 -34 5 -7 9 -19 14 -25 11 -8 -4 -7 -2 1 7
11 12 14 12 22 -1 9 -14 11 -13 14 10 0 6 5 10 9 10 4 -1 15 6 23 15 18 17 34
20 34 4z"/>
<path d="M6430 6029 c0 -5 5 -7 10 -4 6 3 10 8 10 11 0 2 -4 4 -10 4 -5 0 -10
-5 -10 -11z"/>
<path d="M6356 5742 c-2 -4 -1 -14 5 -22 6 -11 9 -12 9 -2 0 8 5 10 13 6 8 -5
8 -2 -2 9 -15 19 -18 20 -25 9z"/>
<path d="M5412 3508 c7 -13 11 -27 10 -31 -1 -5 2 -6 8 -2 6 4 4 15 -6 31 -20
30 -29 32 -12 2z"/>
<path d="M6414 2878 l-19 -23 23 19 c12 11 22 21 22 23 0 8 -8 2 -26 -19z"/>
<path d="M4801 2286 c-14 -15 -19 -26 -12 -31 11 -6 12 -5 15 15 0 6 8 15 16
20 8 5 12 11 9 14 -3 3 -16 -5 -28 -18z"/>
<path d="M4270 1756 c0 -2 7 -7 16 -10 8 -3 12 -2 9 4 -6 10 -25 14 -25 6z"/>
<path d="M3675 1490 c-3 -5 -1 -10 4 -10 6 0 11 5 11 10 0 6 -2 10 -4 10 -3 0
-8 -4 -11 -10z"/>
<path d="M3634 1474 c-18 -14 -18 -15 4 -4 12 6 22 13 22 15 0 8 -5 6 -26 -11z"/>
<path d="M3586 1431 c-3 -5 2 -15 12 -22 15 -13 16 -12 4 3 -10 13 -10 17 0
21 9 4 9 6 1 6 -6 1 -14 -3 -17 -8z"/>
<path d="M3526 1363 c-3 -7 1 -10 10 -6 8 3 14 -1 14 -8 0 -11 3 -11 10 1 5 8
10 18 10 22 0 12 -39 4 -44 -9z"/>
<path d="M2955 931 c-3 -5 -2 -12 3 -15 5 -3 9 1 9 9 0 17 -3 19 -12 6z"/>
<path d="M2853 883 c4 -3 1 -13 -6 -22 -11 -14 -10 -14 5 -2 16 12 16 31 1 31
-4 0 -3 -3 0 -7z"/>
<path d="M5040 6750 c-9 -6 -10 -10 -3 -10 6 0 15 5 18 10 8 12 4 12 -15 0z"/>
<path d="M5017 6729 c7 -7 15 -10 18 -7 3 3 -2 9 -12 12 -14 6 -15 5 -6 -5z"/>
<path d="M5020 6567 c0 -5 6 -7 14 -4 7 3 19 0 25 -6 9 -9 11 -8 6 5 -7 17
-45 21 -45 5z"/>
<path d="M5600 6562 c9 -19 30 -23 30 -5 0 4 -3 3 -7 0 -3 -4 -12 1 -20 11
-13 15 -13 15 -3 -6z"/>
<path d="M5960 6556 c0 -2 8 -10 18 -17 15 -13 16 -12 3 4 -13 16 -21 21 -21
13z"/>
<path d="M5597 6499 c-38 -44 -38 -44 -4 -45 18 -1 24 1 15 3 -10 2 -18 8 -18
11 1 12 27 42 32 37 2 -3 5 2 5 10 0 19 2 20 -30 -16z"/>
<path d="M5015 6491 c1 -26 26 -37 31 -13 1 7 0 8 -3 2 -7 -15 -20 -12 -20 5
0 13 16 20 40 16 4 0 7 3 7 7 0 5 -13 9 -28 9 -25 0 -29 -4 -27 -26z"/>
<path d="M5573 6505 c0 -8 4 -12 9 -9 5 3 6 10 3 15 -9 13 -12 11 -12 -6z"/>
<path d="M5073 6475 c0 -8 4 -12 9 -9 5 3 6 10 3 15 -9 13 -12 11 -12 -6z"/>
<path d="M6015 6450 c3 -5 8 -10 11 -10 2 0 4 5 4 10 0 6 -5 10 -11 10 -5 0
-7 -4 -4 -10z"/>
<path d="M6028 6393 c2 -12 6 -23 7 -23 1 0 5 11 7 23 3 14 0 24 -7 24 -7 0
-10 -10 -7 -24z"/>
<path d="M6490 6170 c-9 -6 -10 -10 -3 -10 6 0 15 5 18 10 8 12 4 12 -15 0z"/>
<path d="M6495 6110 c3 -5 8 -10 11 -10 2 0 4 5 4 10 0 6 -5 10 -11 10 -5 0
-7 -4 -4 -10z"/>
<path d="M6535 6090 c-3 -5 -1 -10 4 -10 6 0 11 5 11 10 0 6 -2 10 -4 10 -3 0
-8 -4 -11 -10z"/>
<path d="M6510 6049 c0 -5 5 -7 10 -4 6 3 10 8 10 11 0 2 -4 4 -10 4 -5 0 -10
-5 -10 -11z"/>
<path d="M6477 6005 c-4 -8 -3 -16 1 -19 4 -3 9 4 9 15 2 23 -3 25 -10 4z"/>
<path d="M6400 5919 c-13 -7 -13 -9 0 -9 13 0 13 -2 1 -9 -10 -7 -4 -9 19 -8
18 1 35 8 36 15 1 7 0 8 -3 2 -2 -5 -11 -10 -19 -10 -9 0 -13 4 -9 9 8 14 -9
21 -25 10z"/>
<path d="M6470 5909 c0 -5 5 -7 10 -4 6 3 10 8 10 11 0 2 -4 4 -10 4 -5 0 -10
-5 -10 -11z"/>
<path d="M6410 5790 c0 -5 9 -8 20 -7 21 1 18 10 -5 13 -8 1 -15 -2 -15 -6z"/>
<path d="M6998 5653 c7 -3 16 -2 19 1 4 3 -2 6 -13 5 -11 0 -14 -3 -6 -6z"/>
<path d="M7005 5630 c-3 -6 1 -7 9 -4 18 7 21 14 7 14 -6 0 -13 -4 -16 -10z"/>
<path d="M7079 5623 c-13 -16 -12 -17 4 -4 9 7 17 15 17 17 0 8 -8 3 -21 -13z"/>
<path d="M7007 5605 c-13 -10 -15 -14 -5 -18 10 -4 10 -6 1 -6 -7 -1 -13 -6
-13 -12 0 -8 5 -8 15 1 8 7 13 16 10 20 -3 5 1 10 7 13 7 2 11 7 8 10 -3 3
-13 -1 -23 -8z"/>
<path d="M7037 5593 c-11 -10 -8 -20 8 -26 8 -4 17 -2 20 4 4 5 3 9 -2 8 -20
-3 -27 2 -13 11 8 5 10 10 4 10 -6 0 -14 -3 -17 -7z"/>
<path d="M7039 5503 c-13 -16 -12 -17 4 -4 9 7 17 15 17 17 0 8 -8 3 -21 -13z"/>
<path d="M6903 5430 c-23 -21 -28 -30 -17 -34 7 -3 11 -11 8 -19 -3 -8 1 -14
9 -14 9 0 13 8 10 21 -4 19 -3 19 7 4 6 -10 16 -18 23 -18 9 0 9 2 0 8 -15 9
-13 54 2 49 5 -2 9 -13 7 -23 -2 -18 -2 -18 9 0 9 14 8 20 -1 26 -6 4 -11 11
-10 16 3 19 -17 12 -47 -16z m31 5 c-10 -8 -14 -15 -9 -15 12 0 -16 -20 -29
-20 -5 0 1 11 14 25 13 14 28 25 34 25 5 0 1 -7 -10 -15z"/>
<path d="M6990 5441 c0 -6 4 -13 10 -16 6 -3 7 1 4 9 -7 18 -14 21 -14 7z"/>
<path d="M6850 5375 c-23 -13 -21 -16 10 -19 6 -1 10 3 9 8 0 5 5 13 13 17 22
15 -6 9 -32 -6z"/>
<path d="M7227 5309 c7 -7 15 -10 18 -7 3 3 -2 9 -12 12 -14 6 -15 5 -6 -5z"/>
<path d="M7246 5232 c-3 -5 1 -9 9 -9 8 0 12 4 9 9 -3 4 -7 8 -9 8 -2 0 -6 -4
-9 -8z"/>
<path d="M7232 5190 c0 -14 2 -19 5 -12 2 6 2 18 0 25 -3 6 -5 1 -5 -13z"/>
<path d="M7273 5165 c0 -8 4 -12 9 -9 5 3 6 10 3 15 -9 13 -12 11 -12 -6z"/>
<path d="M7225 5150 c3 -4 14 -10 25 -13 11 -3 18 -2 15 3 -3 4 -14 10 -25 13
-11 3 -18 2 -15 -3z"/>
<path d="M7230 5116 c0 -8 -3 -16 -7 -19 -5 -2 -2 -2 5 -1 9 3 10 -4 6 -24 -4
-15 -4 -24 0 -20 11 9 15 78 5 78 -5 0 -9 -6 -9 -14z"/>
<path d="M7270 5080 c-9 -6 -10 -10 -3 -10 6 0 15 5 18 10 8 12 4 12 -15 0z"/>
<path d="M7256 5048 c3 -4 11 -5 19 -1 21 7 19 12 -4 10 -11 0 -18 -5 -15 -9z"/>
<path d="M7253 4983 c0 -10 4 -10 16 -1 9 7 18 13 20 15 2 1 -5 1 -16 0 -11 0
-20 -7 -20 -14z"/>
<path d="M7221 4946 c-6 -7 -22 -12 -36 -11 -13 2 -24 0 -24 -3 3 -20 -2 -32
-11 -27 -5 3 -16 -8 -25 -24 -9 -19 -11 -32 -5 -36 16 -10 12 -19 -24 -58 -18
-20 -30 -37 -25 -37 4 0 10 4 14 10 3 5 13 7 23 4 12 -4 13 -3 5 3 -10 7 -9
14 3 31 8 12 20 19 26 16 6 -4 6 1 -1 14 -9 18 -8 21 9 19 14 -1 18 -6 15 -18
-7 -20 10 -35 21 -18 4 8 3 9 -4 5 -8 -5 -11 1 -9 16 1 14 -3 22 -10 21 -7 -2
-13 5 -13 15 0 10 8 18 19 19 14 1 18 -3 14 -13 -3 -8 0 -14 7 -14 6 0 8 -5 4
-12 -4 -7 -3 -8 5 -4 9 6 9 11 0 22 -6 8 -8 14 -3 14 5 0 0 7 -10 15 -11 8
-17 18 -13 22 4 3 17 -2 29 -13 13 -10 18 -12 11 -5 -10 12 -7 19 13 38 14 12
21 23 16 23 -5 0 -15 -6 -21 -14z m-90 -89 c-10 -9 -11 -8 -5 6 3 10 9 15 12
12 3 -3 0 -11 -7 -18z"/>
<path d="M7250 4929 c0 -5 5 -7 10 -4 6 3 10 8 10 11 0 2 -4 4 -10 4 -5 0 -10
-5 -10 -11z"/>
<path d="M7216 4868 c3 -5 10 -6 15 -3 13 9 11 12 -6 12 -8 0 -12 -4 -9 -9z"/>
<path d="M7130 4790 c0 -5 9 -8 20 -7 21 1 18 10 -5 13 -8 1 -15 -2 -15 -6z"/>
<path d="M7055 4729 c-4 -6 -5 -12 -2 -15 2 -3 7 2 10 11 7 17 1 20 -8 4z"/>
<path d="M7215 4490 c-4 -6 -1 -9 7 -8 8 2 12 -5 11 -19 -2 -13 1 -23 5 -23 4
0 8 9 9 19 2 24 -22 47 -32 31z"/>
<path d="M7212 4420 c7 -11 18 -20 25 -20 8 0 5 8 -7 20 -11 11 -22 20 -25 20
-3 0 0 -9 7 -20z"/>
<path d="M7256 4417 c3 -10 9 -15 12 -12 3 3 0 11 -7 18 -10 9 -11 8 -5 -6z"/>
<path d="M7220 4320 c12 -8 13 -10 1 -10 -8 0 -11 -3 -8 -6 4 -4 13 -2 20 4 8
7 17 9 21 5 3 -4 14 -8 22 -9 9 -1 13 1 9 4 -4 4 -11 8 -16 8 -5 1 -10 2 -11
3 -2 2 -14 4 -28 7 -19 3 -21 2 -10 -6z"/>
<path d="M7237 4223 c-10 -9 -9 -23 1 -23 5 0 9 7 9 15 0 17 -1 18 -10 8z"/>
<path d="M7255 4190 c-3 -5 -1 -10 4 -10 6 0 11 5 11 10 0 6 -2 10 -4 10 -3 0
-8 -4 -11 -10z"/>
<path d="M7230 4163 c5 -2 8 -9 4 -14 -3 -5 0 -9 6 -9 15 0 7 23 -8 26 -7 1
-8 0 -2 -3z"/>
<path d="M7230 4091 c0 -6 4 -12 8 -15 5 -3 9 1 9 9 0 8 -4 15 -9 15 -4 0 -8
-4 -8 -9z"/>
<path d="M7180 3996 c0 -2 7 -6 15 -10 8 -3 15 -1 15 4 0 6 -7 10 -15 10 -8 0
-15 -2 -15 -4z"/>
<path d="M6229 3919 c-6 -26 -4 -51 4 -56 6 -3 7 -1 3 5 -4 7 -1 12 6 12 8 0
14 -9 15 -19 1 -11 -4 -19 -10 -17 -7 1 -9 1 -4 -1 4 -3 5 -9 1 -14 -3 -5 -1
-9 5 -9 5 0 12 6 14 13 4 10 6 10 6 0 1 -7 6 -13 12 -13 8 0 8 5 -1 15 -10 12
-10 18 0 30 7 8 16 12 21 9 5 -3 9 -1 9 4 0 11 -30 26 -44 23 -4 -1 -14 4 -22
10 -8 6 -14 10 -15 8z m55 -28 c3 -5 -1 -14 -8 -20 -12 -10 -14 -9 -11 6 2 10
4 19 4 21 2 5 10 2 15 -7z"/>
<path d="M7154 3905 c-4 -8 -11 -12 -17 -8 -6 3 -7 1 -3 -5 10 -16 14 -15 26
8 6 11 8 20 5 20 -3 0 -8 -7 -11 -15z"/>
<path d="M7090 3836 c0 -2 7 -7 16 -10 8 -3 12 -2 9 4 -6 10 -25 14 -25 6z"/>
<path d="M6310 3810 c0 -5 5 -10 10 -10 6 0 10 5 10 10 0 6 -4 10 -10 10 -5 0
-10 -4 -10 -10z"/>
<path d="M6262 3790 c7 -10 14 -18 15 -16 6 6 -9 36 -18 36 -5 0 -4 -9 3 -20z"/>
<path d="M6997 3795 c-4 -9 -12 -13 -18 -9 -8 4 -9 3 -5 -5 6 -9 11 -9 22 0 8
7 14 7 14 1 0 -15 -23 -30 -42 -27 -19 3 -33 -21 -17 -30 5 -4 7 -11 4 -16 -4
-5 -1 -9 4 -9 15 0 14 13 -1 29 -11 11 -10 13 4 8 10 -3 24 1 33 9 8 9 15 11
15 5 0 -6 5 -11 11 -11 8 0 7 6 -2 17 -12 15 -12 16 4 10 10 -4 16 -3 13 2 -3
5 4 11 16 14 12 4 19 9 16 12 -3 4 -15 2 -27 -4 -16 -9 -22 -8 -29 5 -8 15
-10 15 -15 -1z"/>
<path d="M7093 3785 c0 -8 4 -12 9 -9 4 3 8 9 8 15 0 5 -4 9 -8 9 -5 0 -9 -7
-9 -15z"/>
<path d="M6307 3724 c2 -7 12 -15 20 -18 12 -5 13 -4 5 7 -7 8 -10 16 -7 19 3
2 -1 5 -9 5 -8 0 -12 -6 -9 -13z"/>
<path d="M6990 3720 c-8 -5 -10 -10 -5 -10 6 0 17 5 25 10 8 5 11 10 5 10 -5
0 -17 -5 -25 -10z"/>
<path d="M6872 3704 c-7 -8 -17 -12 -23 -9 -5 4 -9 4 -9 1 0 -3 12 -12 28 -20
24 -12 30 -12 47 1 17 14 18 15 2 9 -15 -5 -17 -2 -12 17 4 15 3 18 -3 8 -6
-7 -11 -9 -13 -3 -2 6 -9 4 -17 -4z m21 -18 c4 -10 1 -13 -8 -9 -8 3 -12 9 -9
14 7 12 11 11 17 -5z"/>
<path d="M6556 3688 c3 -5 10 -6 15 -3 13 9 11 12 -6 12 -8 0 -12 -4 -9 -9z"/>
<path d="M6973 3685 c-3 -9 -3 -18 -1 -21 3 -3 8 4 11 16 6 23 -1 27 -10 5z"/>
<path d="M6333 3682 c-7 -4 -9 -13 -4 -21 6 -9 10 -7 14 8 3 12 4 21 4 21 -1
0 -7 -4 -14 -8z"/>
<path d="M6651 3674 c0 -11 3 -14 6 -6 3 7 2 16 -1 19 -3 4 -6 -2 -5 -13z"/>
<path d="M6696 3681 c-4 -5 -2 -12 3 -15 5 -4 12 -2 15 3 4 5 2 12 -3 15 -5 4
-12 2 -15 -3z"/>
<path d="M6773 3673 c0 -18 24 -42 42 -43 5 0 0 7 -12 15 -13 9 -20 22 -17 30
4 8 2 15 -3 15 -5 0 -10 -8 -10 -17z"/>
<path d="M6806 3675 c-3 -8 -1 -15 3 -15 5 0 12 6 14 13 4 10 6 10 6 0 1 -7 6
-13 12 -13 8 0 8 5 -1 15 -7 8 -16 15 -20 15 -4 0 -10 -7 -14 -15z"/>
<path d="M6937 3677 c-3 -8 1 -14 8 -14 7 0 11 6 8 14 -3 7 -6 13 -8 13 -2 0
-5 -6 -8 -13z"/>
<path d="M6715 3650 c-3 -5 -1 -10 4 -10 6 0 11 5 11 10 0 6 -2 10 -4 10 -3 0
-8 -4 -11 -10z"/>
<path d="M6846 3633 l-17 -28 19 22 c11 12 23 19 27 15 5 -4 5 -1 1 6 -10 17
-11 16 -30 -15z"/>
<path d="M6934 3636 c1 -8 5 -18 8 -22 4 -3 5 1 4 10 -1 8 -5 18 -8 22 -4 3
-5 -1 -4 -10z"/>
<path d="M6767 3629 c7 -7 15 -10 18 -7 3 3 -2 9 -12 12 -14 6 -15 5 -6 -5z"/>
<path d="M6710 3606 c0 -2 8 -10 18 -17 15 -13 16 -12 3 4 -13 16 -21 21 -21
13z"/>
<path d="M6447 3489 c7 -7 15 -10 18 -7 3 3 -2 9 -12 12 -14 6 -15 5 -6 -5z"/>
<path d="M5475 3410 c3 -5 8 -10 11 -10 2 0 4 5 4 10 0 6 -5 10 -11 10 -5 0
-7 -4 -4 -10z"/>
<path d="M5515 3309 c-4 -6 -4 -13 -1 -16 3 -4 6 -1 6 5 0 7 5 12 10 12 7 0 7
-7 0 -22 -11 -22 -10 -22 4 -4 15 19 13 36 -4 36 -5 0 -12 -5 -15 -11z"/>
<path d="M5570 3272 c0 -5 7 -9 15 -9 8 0 12 4 9 9 -3 4 -9 8 -15 8 -5 0 -9
-4 -9 -8z"/>
<path d="M5600 3241 c0 -6 4 -13 10 -16 6 -3 7 1 4 9 -7 18 -14 21 -14 7z"/>
<path d="M6558 3233 c7 -3 16 -2 19 1 4 3 -2 6 -13 5 -11 0 -14 -3 -6 -6z"/>
<path d="M5609 3193 c-13 -16 -12 -17 4 -4 16 13 21 21 13 21 -2 0 -10 -8 -17
-17z"/>
<path d="M6596 3168 c3 -5 10 -6 15 -3 13 9 11 12 -6 12 -8 0 -12 -4 -9 -9z"/>
<path d="M6596 3142 c-5 -9 -2 -39 5 -46 3 -3 5 8 4 24 0 32 -1 35 -9 22z"/>
<path d="M5631 3093 c3 -20 -2 -27 -11 -13 -6 9 -10 10 -10 3 0 -19 17 -24 29
-9 9 10 9 16 1 21 -6 4 -10 3 -9 -2z"/>
<path d="M5596 3057 c3 -10 9 -15 12 -12 3 3 0 11 -7 18 -10 9 -11 8 -5 -6z"/>
<path d="M5630 3040 c-9 -6 -10 -10 -3 -10 6 0 15 5 18 10 8 12 4 12 -15 0z"/>
<path d="M5675 3041 c-3 -5 -2 -12 3 -15 5 -3 9 1 9 9 0 17 -3 19 -12 6z"/>
<path d="M5600 3026 c0 -2 7 -9 15 -16 9 -7 15 -8 15 -2 0 5 -7 12 -15 16 -8
3 -15 4 -15 2z"/>
<path d="M6575 3010 c-4 -6 -1 -9 7 -8 7 2 12 -3 10 -10 -1 -8 2 -11 8 -7 8 5
7 11 -1 21 -14 17 -16 17 -24 4z"/>
<path d="M5630 2990 c-13 -8 -12 -10 3 -10 9 0 17 5 17 10 0 12 -1 12 -20 0z"/>
<path d="M5616 2958 c3 -5 10 -6 15 -3 13 9 11 12 -6 12 -8 0 -12 -4 -9 -9z"/>
<path d="M5645 2949 c-4 -6 -4 -13 -1 -16 3 -4 6 -1 6 6 0 7 5 9 10 6 6 -3 10
-1 10 4 0 14 -17 14 -25 0z"/>
<path d="M6575 2930 c3 -5 8 -10 11 -10 2 0 4 5 4 10 0 6 -5 10 -11 10 -5 0
-7 -4 -4 -10z"/>
<path d="M5674 2919 c-3 -6 -2 -15 3 -20 5 -5 9 -1 9 11 0 23 -2 24 -12 9z"/>
<path d="M5650 2912 c0 -6 -6 -10 -12 -8 -7 1 -9 1 -5 -2 4 -2 2 -11 -5 -20
-8 -10 -9 -13 -1 -9 6 4 14 3 18 -3 8 -13 25 -13 25 0 0 6 -3 9 -7 9 -20 -3
-24 2 -13 16 7 9 10 18 6 22 -3 3 -6 1 -6 -5z"/>
<path d="M6514 2885 c-4 -8 -10 -12 -15 -9 -5 3 -9 0 -9 -5 0 -18 19 -12 30 9
6 11 8 20 5 20 -3 0 -8 -7 -11 -15z"/>
<path d="M5896 2863 c-6 -14 -5 -15 5 -6 7 7 10 15 7 18 -3 3 -9 -2 -12 -12z"/>
<path d="M5626 2844 c-8 -21 -8 -24 5 -24 5 0 8 4 4 9 -3 5 3 11 12 13 16 3
17 4 1 10 -10 4 -19 1 -22 -8z"/>
<path d="M5660 2830 c-8 -5 -10 -10 -5 -10 6 0 17 5 25 10 8 5 11 10 5 10 -5
0 -17 -5 -25 -10z"/>
<path d="M5950 2831 c0 -6 4 -13 10 -16 6 -3 7 1 4 9 -7 18 -14 21 -14 7z"/>
<path d="M5622 2798 c-8 -8 -9 -15 -1 -25 7 -7 7 -13 2 -13 -5 0 -10 -6 -10
-13 0 -8 6 -14 13 -14 7 0 10 6 7 14 -4 9 0 11 13 6 14 -5 13 -1 -5 14 -17 13
-21 22 -13 27 7 4 12 2 12 -3 0 -6 4 -11 10 -11 5 0 7 7 4 15 -7 18 -16 19
-32 3z"/>
<path d="M6451 2794 c0 -11 3 -14 6 -6 3 7 2 16 -1 19 -3 4 -6 -2 -5 -13z"/>
<path d="M5670 2770 c0 -5 5 -10 11 -10 5 0 7 5 4 10 -3 6 -8 10 -11 10 -2 0
-4 -4 -4 -10z"/>
<path d="M6190 2749 c-7 -13 -9 -21 -5 -17 5 4 14 3 21 -3 19 -16 29 10 11 28
-13 14 -16 13 -27 -8z m30 -10 c0 -6 -4 -7 -10 -4 -5 3 -10 11 -10 16 0 6 5 7
10 4 6 -3 10 -11 10 -16z"/>
<path d="M6375 2749 c-4 -5 2 -6 11 -2 12 4 15 3 10 -5 -10 -16 -1 -15 12 1 8
10 6 13 -8 14 -11 1 -22 -2 -25 -8z"/>
<path d="M6116 2733 c-6 -14 -5 -15 5 -6 7 7 10 15 7 18 -3 3 -9 -2 -12 -12z"/>
<path d="M6237 2725 c-4 -8 -3 -16 1 -19 4 -3 9 4 9 15 2 23 -3 25 -10 4z"/>
<path d="M6271 2721 c-8 -5 -9 -11 -3 -15 5 -3 12 1 16 9 6 17 6 18 -13 6z"/>
<path d="M5610 2705 c-7 -8 -9 -15 -5 -15 4 0 1 -8 -6 -17 -7 -10 -9 -15 -4
-10 4 4 19 0 32 -8 23 -15 23 -15 11 4 -10 17 -9 23 6 40 11 12 14 21 9 21 -6
0 -13 -7 -17 -15 -3 -8 -11 -15 -17 -15 -8 0 -8 4 1 15 7 8 10 15 7 15 -2 0
-10 -7 -17 -15z"/>
<path d="M5653 2685 c-3 -9 -3 -18 -1 -21 3 -3 8 4 11 16 6 23 -1 27 -10 5z"/>
<path d="M6205 2690 c-3 -6 1 -7 9 -4 18 7 21 14 7 14 -6 0 -13 -4 -16 -10z"/>
<path d="M5630 2599 c0 -5 5 -7 10 -4 6 3 10 8 10 11 0 2 -4 4 -10 4 -5 0 -10
-5 -10 -11z"/>
<path d="M5560 2553 c12 -18 29 -32 38 -32 15 1 15 2 0 6 -15 4 -16 9 -8 26 9
18 8 19 -2 6 -10 -15 -13 -15 -31 5 -14 16 -14 13 3 -11z"/>
<path d="M5630 2556 c0 -2 7 -7 16 -10 8 -3 12 -2 9 4 -6 10 -25 14 -25 6z"/>
<path d="M4949 2505 c-1 -3 -2 -8 -3 -12 -1 -5 -5 -13 -9 -19 -7 -12 19 -29
37 -25 5 1 6 -5 3 -14 -4 -8 -2 -15 3 -15 15 0 12 26 -3 39 -8 6 -17 8 -21 4
-4 -4 -5 5 -2 20 2 15 3 27 0 27 -2 0 -5 -2 -5 -5z"/>
<path d="M5550 2490 c0 -5 7 -7 15 -4 8 4 15 8 15 10 0 2 -7 4 -15 4 -8 0 -15
-4 -15 -10z"/>
<path d="M4991 2465 c9 -11 19 -27 22 -35 5 -13 6 -13 6 1 1 9 -9 24 -21 35
-23 19 -23 19 -7 -1z"/>
<path d="M5560 2450 c-8 -5 -10 -10 -5 -10 6 0 17 5 25 10 8 5 11 10 5 10 -5
0 -17 -5 -25 -10z"/>
<path d="M5437 2393 c-4 -3 -7 -11 -7 -17 0 -6 5 -5 12 2 6 6 9 14 7 17 -3 3
-9 2 -12 -2z"/>
<path d="M5470 2380 c-9 -6 -10 -10 -3 -10 6 0 15 5 18 10 8 12 4 12 -15 0z"/>
<path d="M5113 2355 c0 -8 4 -15 9 -15 4 0 8 4 8 9 0 6 -4 12 -8 15 -5 3 -9
-1 -9 -9z"/>
<path d="M4915 2351 c-3 -5 -2 -12 3 -15 5 -3 9 1 9 9 0 17 -3 19 -12 6z"/>
<path d="M5331 2333 c3 -20 -2 -27 -11 -13 -6 9 -10 10 -10 3 0 -19 17 -24 29
-9 9 10 9 16 1 21 -6 4 -10 3 -9 -2z"/>
<path d="M5234 2310 c0 -13 4 -16 10 -10 7 7 7 13 0 20 -6 6 -10 3 -10 -10z"/>
<path d="M4895 2310 c-3 -5 -2 -10 4 -10 5 0 13 5 16 10 3 6 2 10 -4 10 -5 0
-13 -4 -16 -10z"/>
<path d="M4870 2291 c0 -6 4 -13 10 -16 6 -3 7 1 4 9 -7 18 -14 21 -14 7z"/>
<path d="M4758 2234 c-4 -3 -4 -13 -1 -22 4 -10 3 -14 -2 -10 -10 10 -62 -27
-62 -44 0 -8 9 -15 19 -15 10 -1 18 3 18 8 0 6 4 8 10 4 5 -3 8 -11 6 -18 -1
-7 -1 -9 1 -5 2 4 12 4 21 1 11 -3 8 1 -5 11 -26 19 -31 38 -9 30 22 -9 42 35
24 52 -8 8 -17 12 -20 8z m16 -38 c-3 -9 -12 -15 -20 -14 -7 2 -19 -6 -27 -16
-9 -12 -16 -15 -21 -8 -6 10 27 36 49 37 6 0 9 9 8 19 -1 11 2 15 8 9 5 -5 7
-17 3 -27z"/>
<path d="M4796 2194 c-4 -9 -4 -19 -1 -22 3 -3 5 0 5 7 0 7 5 9 10 6 6 -4 7
-11 4 -17 -4 -7 -2 -8 5 -4 9 6 9 12 -1 24 -7 10 -13 18 -14 20 -1 2 -4 -5 -8
-14z"/>
<path d="M4755 2110 c-3 -5 -1 -10 4 -10 6 0 11 5 11 10 0 6 -2 10 -4 10 -3 0
-8 -4 -11 -10z"/>
<path d="M4750 2069 c0 -5 5 -7 10 -4 6 3 10 8 10 11 0 2 -4 4 -10 4 -5 0 -10
-5 -10 -11z"/>
<path d="M4565 2029 c-11 -11 -19 -23 -17 -25 1 -2 2 -9 2 -15 0 -9 -4 -9 -13
0 -11 8 -18 6 -32 -9 -10 -11 -13 -20 -7 -20 5 0 9 -11 7 -25 -2 -24 -1 -24
15 -10 10 9 25 13 36 9 18 -6 18 -6 -1 10 -16 14 -16 16 -3 12 24 -7 44 20 28
38 -9 12 -8 15 9 13 13 -1 20 -6 17 -14 -3 -7 0 -15 6 -19 6 -4 8 -3 5 3 -9
15 20 36 38 29 10 -3 14 -2 9 5 -3 6 -16 8 -28 5 -14 -4 -26 1 -36 15 l-16 20
-19 -22z m28 -2 c3 -7 -3 -13 -14 -13 -13 0 -15 3 -7 13 6 7 12 13 13 13 2 0
5 -6 8 -13z m-19 -52 c-4 -8 -10 -13 -15 -10 -4 3 -6 12 -3 20 4 8 10 13 15
10 4 -3 6 -12 3 -20z m-40 -18 c-9 -25 -22 -21 -19 6 3 32 4 32 15 21 6 -6 8
-18 4 -27z"/>
<path d="M4674 2039 c-3 -6 0 -18 9 -26 10 -10 17 -12 22 -4 4 7 1 10 -7 9 -7
-2 -12 5 -12 15 2 20 -2 22 -12 6z"/>
<path d="M4655 1979 c-4 -6 -5 -12 -2 -15 2 -3 7 2 10 11 7 17 1 20 -8 4z"/>
<path d="M4525 1909 c-4 -6 -5 -12 -2 -15 2 -3 7 2 10 11 7 17 1 20 -8 4z"/>
<path d="M4556 1908 c3 -5 10 -6 15 -3 13 9 11 12 -6 12 -8 0 -12 -4 -9 -9z"/>
<path d="M4000 1700 c-9 -6 -10 -10 -3 -10 6 0 15 5 18 10 8 12 4 12 -15 0z"/>
<path d="M3941 1664 c14 -17 32 -19 27 -2 -2 6 -12 12 -22 14 -14 2 -15 0 -5
-12z"/>
<path d="M4041 1628 c-13 -20 -12 -22 1 -11 8 7 18 10 22 6 4 -4 4 0 0 10 -8
21 -6 21 -23 -5z"/>
<path d="M3847 1619 c7 -7 15 -10 18 -7 3 3 -2 9 -12 12 -14 6 -15 5 -6 -5z"/>
<path d="M3748 1549 c-3 -8 0 -23 8 -34 8 -10 14 -14 14 -8 0 6 12 16 28 22
l27 11 -27 -5 c-23 -4 -27 -2 -22 12 5 14 4 15 -4 4 -8 -11 -10 -11 -14 0 -3
10 -6 10 -10 -2z"/>
<path d="M3730 1429 c0 -5 5 -7 10 -4 6 3 10 8 10 11 0 2 -4 4 -10 4 -5 0 -10
-5 -10 -11z"/>
<path d="M3675 1391 c-3 -5 -2 -12 3 -15 5 -3 9 1 9 9 0 17 -3 19 -12 6z"/>
<path d="M3625 1379 c-4 -5 -4 -13 -1 -16 3 -4 6 0 6 8 0 11 2 11 10 -1 6 -9
10 -10 10 -3 0 17 -17 25 -25 12z"/>
<path d="M3601 1354 c0 -11 3 -14 6 -6 3 7 2 16 -1 19 -3 4 -6 -2 -5 -13z"/>
<path d="M3395 1230 c-4 -6 -11 -7 -17 -4 -7 4 -8 2 -4 -4 7 -12 36 -5 36 9 0
12 -7 11 -15 -1z"/>
<path d="M3333 1193 c3 -5 -3 -17 -14 -26 -11 -10 -17 -22 -13 -29 4 -6 1 -9
-7 -6 -8 3 -12 12 -11 19 2 8 0 10 -4 6 -15 -15 -11 -54 8 -66 11 -7 18 -7 18
-1 0 5 -4 10 -10 10 -5 0 -10 5 -10 12 0 6 3 8 7 5 3 -4 13 2 20 13 11 16 18
18 34 10 13 -7 19 -7 19 0 0 5 -5 10 -11 10 -5 0 -7 4 -4 10 4 6 -1 7 -12 3
-15 -6 -16 -4 -5 9 10 13 10 18 1 24 -7 4 -9 3 -6 -3z"/>
<path d="M3376 1155 c4 -8 8 -15 10 -15 2 0 4 7 4 15 0 8 -4 15 -10 15 -5 0
-7 -7 -4 -15z"/>
<path d="M3410 1151 c0 -6 4 -13 10 -16 6 -3 7 1 4 9 -7 18 -14 21 -14 7z"/>
<path d="M3247 1114 c4 -12 3 -15 -5 -10 -7 4 -12 3 -12 -2 0 -4 -10 -19 -22
-32 -17 -18 -18 -22 -5 -17 17 6 23 -3 11 -16 -11 -11 -45 13 -37 26 5 9 3 9
-8 0 -8 -6 -18 -13 -24 -15 -5 -1 -10 -10 -10 -18 0 -10 -10 -15 -29 -15 -19
-1 -36 -10 -52 -30 -13 -17 -24 -33 -24 -36 0 -13 50 -6 62 8 10 12 9 18 -7
29 -16 12 -16 14 -3 14 18 0 32 -17 33 -39 0 -16 35 -25 35 -9 0 6 -7 7 -16 4
-12 -5 -15 -2 -10 11 4 9 2 19 -3 23 -6 3 -1 11 10 18 18 11 19 10 15 -14 -3
-15 -2 -24 1 -20 3 3 13 0 22 -6 11 -9 10 -6 -2 9 -18 21 -18 21 4 28 16 6 18
9 8 16 -7 4 -11 11 -7 14 3 4 16 -4 28 -17 18 -19 20 -20 14 -4 -6 15 -4 17 7
11 8 -4 11 -5 7 0 -4 4 -3 14 3 22 9 9 8 13 0 13 -23 0 -10 15 14 16 14 1 25
-1 25 -5 0 -4 7 -8 16 -8 14 0 14 2 -2 14 -10 7 -21 13 -26 13 -4 0 -5 6 -2
14 3 8 1 17 -5 21 -7 4 -8 0 -4 -11z m-81 -86 c0 -10 -1 -18 -3 -18 -1 0 -7 8
-12 18 -7 13 -6 19 2 19 7 0 13 -9 13 -19z m-79 -62 c-2 -6 -13 -12 -25 -12
-12 -1 -19 3 -16 8 3 4 10 5 16 2 7 -5 9 -1 5 9 -4 11 -2 14 9 10 8 -3 13 -11
11 -17z"/>
<path d="M3323 1114 c-3 -8 0 -21 6 -27 9 -9 11 -8 5 7 -4 11 -2 21 7 27 10 6
11 9 1 9 -7 0 -15 -7 -19 -16z"/>
<path d="M3363 1113 c-7 -3 -13 -9 -13 -15 0 -7 5 -7 13 1 8 6 16 8 19 5 3 -3
8 -1 12 4 5 9 -10 12 -31 5z"/>
<path d="M3254 1052 c3 -5 0 -13 -6 -15 -9 -4 -10 -6 -1 -6 17 -1 25 16 12 25
-7 4 -9 3 -5 -4z"/>
<path d="M3293 1035 c0 -8 4 -12 9 -9 5 3 6 10 3 15 -9 13 -12 11 -12 -6z"/>
<path d="M3250 1009 c0 -5 5 -7 10 -4 6 3 10 8 10 11 0 2 -4 4 -10 4 -5 0 -10
-5 -10 -11z"/>
<path d="M1170 976 c0 -2 7 -7 16 -10 8 -3 12 -2 9 4 -6 10 -25 14 -25 6z"/>
<path d="M3076 917 c3 -10 9 -15 12 -12 3 3 0 11 -7 18 -10 9 -11 8 -5 -6z"/>
<path d="M3106 908 c3 -5 10 -6 15 -3 13 9 11 12 -6 12 -8 0 -12 -4 -9 -9z"/>
<path d="M1295 890 c3 -5 8 -10 11 -10 2 0 4 5 4 10 0 6 -5 10 -11 10 -5 0 -7
-4 -4 -10z"/>
<path d="M2990 879 c0 -5 -6 -7 -12 -3 -7 4 -9 3 -5 -1 13 -15 36 -14 30 1 -6
17 -13 18 -13 3z"/>
<path d="M2940 865 c0 -8 2 -15 4 -15 2 0 6 7 10 15 3 8 1 15 -4 15 -6 0 -10
-7 -10 -15z"/>
<path d="M1356 848 c3 -5 10 -6 15 -3 13 9 11 12 -6 12 -8 0 -12 -4 -9 -9z"/>
<path d="M1393 845 c0 -8 4 -12 9 -9 5 3 6 10 3 15 -9 13 -12 11 -12 -6z"/>
<path d="M1419 823 c-13 -16 -12 -17 4 -4 16 13 21 21 13 21 -2 0 -10 -8 -17
-17z"/>
<path d="M1455 831 c-3 -5 -2 -12 3 -15 5 -3 9 1 9 9 0 17 -3 19 -12 6z"/>
<path d="M2765 828 c4 -11 2 -18 -4 -18 -6 0 -11 4 -11 9 0 8 -8 8 -39 2 -2
-1 1 -7 7 -14 7 -8 7 -18 2 -27 -6 -8 -10 -19 -9 -25 0 -5 6 1 13 15 8 14 13
27 11 31 -2 3 9 6 25 6 25 0 28 -3 17 -15 -11 -13 -9 -14 10 -1 16 9 19 16 10
21 -8 5 -7 8 6 8 9 0 17 5 17 10 0 7 -6 7 -18 1 -13 -7 -23 -6 -31 2 -10 9
-11 8 -6 -5z"/>
<path d="M2890 831 c0 -4 11 -7 25 -7 14 0 25 3 25 7 0 3 -11 7 -25 7 -14 0
-25 -4 -25 -7z"/>
<path d="M2996 828 c3 -5 10 -6 15 -3 13 9 11 12 -6 12 -8 0 -12 -4 -9 -9z"/>
<path d="M2677 795 c-9 -9 -13 -23 -10 -33 6 -15 4 -15 -10 -4 -8 8 -13 21
-11 30 5 14 3 14 -10 -2 -8 -10 -13 -23 -10 -27 3 -5 1 -9 -4 -9 -17 0 -22 13
-10 29 7 9 1 6 -13 -7 -19 -18 -21 -24 -11 -31 8 -5 13 -11 12 -15 -1 -4 0
-10 3 -14 2 -4 2 -2 1 5 -3 14 41 45 50 36 4 -4 13 -8 21 -9 11 -2 12 2 6 14
-6 12 -4 22 6 31 13 12 14 11 9 -10 -6 -21 -6 -22 5 -6 16 26 -3 44 -24 22z"/>
<path d="M2857 799 c7 -7 15 -10 18 -7 3 3 -2 9 -12 12 -14 6 -15 5 -6 -5z"/>
<path d="M2893 795 c0 -8 4 -12 9 -9 5 3 6 10 3 15 -9 13 -12 11 -12 -6z"/>
<path d="M1587 777 c4 -6 8 -15 8 -19 0 -16 11 -15 12 2 1 10 -5 21 -13 24
-10 4 -13 2 -7 -7z"/>
<path d="M2799 788 c-6 -20 -6 -39 0 -42 4 -3 7 6 7 20 0 20 -4 32 -7 22z"/>
<path d="M2526 739 c-29 -31 -50 -33 -25 -3 13 16 12 16 -8 4 -12 -8 -19 -18
-16 -23 3 -5 0 -7 -8 -5 -8 3 -13 10 -12 16 2 6 -6 9 -17 7 -29 -6 -41 -15
-35 -26 4 -5 2 -9 -4 -9 -5 0 -12 6 -15 13 -5 9 -7 9 -12 0 -3 -7 -13 -9 -22
-6 -9 3 -14 3 -11 -1 4 -4 21 -9 38 -11 22 -3 34 1 44 16 13 17 16 18 27 4 7
-9 22 -13 37 -10 19 3 23 0 19 -11 -3 -9 -2 -12 5 -9 6 4 8 14 5 22 -5 11 -2
13 9 9 9 -3 13 -2 10 3 -3 5 -1 12 5 16 5 3 10 0 10 -7 0 -8 5 -5 11 5 19 33
-5 36 -35 6z"/>
<path d="M1536 748 c3 -5 10 -6 15 -3 13 9 11 12 -6 12 -8 0 -12 -4 -9 -9z"/>
<path d="M1670 746 c0 -2 8 -10 18 -17 15 -13 16 -12 3 4 -13 16 -21 21 -21
13z"/>
<path d="M2636 732 c-6 -10 -2 -40 7 -47 4 -3 5 -2 2 2 -3 3 3 16 12 27 17 20
17 20 -1 6 -18 -14 -19 -13 -13 3 7 17 2 24 -7 9z"/>
<path d="M2706 728 c3 -5 10 -6 15 -3 13 9 11 12 -6 12 -8 0 -12 -4 -9 -9z"/>
<path d="M2570 721 c0 -6 4 -13 10 -16 6 -3 7 1 4 9 -7 18 -14 21 -14 7z"/>
<path d="M1745 710 c3 -5 11 -10 16 -10 6 0 7 5 4 10 -3 6 -11 10 -16 10 -6 0
-7 -4 -4 -10z"/>
<path d="M1825 711 c-4 -7 1 -8 12 -4 15 6 16 4 6 -8 -10 -13 -10 -16 1 -16
16 0 15 29 -1 34 -6 2 -14 -1 -18 -6z"/>
<path d="M1693 695 c0 -8 4 -12 9 -9 5 3 6 10 3 15 -9 13 -12 11 -12 -6z"/>
<path d="M1906 698 c3 -5 10 -6 15 -3 13 9 11 12 -6 12 -8 0 -12 -4 -9 -9z"/>
<path d="M2177 703 c-13 -12 -7 -25 7 -20 9 4 17 -2 21 -14 6 -19 8 -19 19 -3
10 13 17 14 32 6 13 -7 26 -7 35 -1 7 5 10 9 4 10 -5 0 -21 2 -35 4 -14 1 -31
-3 -39 -9 -12 -9 -13 -7 -7 9 4 11 4 16 0 12 -4 -4 -12 -2 -19 3 -7 5 -15 7
-18 3z"/>
<path d="M2554 696 c1 -8 5 -18 8 -22 4 -3 5 1 4 10 -1 8 -5 18 -8 22 -4 3 -5
-1 -4 -10z"/>
<path d="M1870 690 c0 -5 5 -10 10 -10 6 0 10 5 10 10 0 6 -4 10 -10 10 -5 0
-10 -4 -10 -10z"/>
<path d="M1973 688 c-3 -7 -1 -8 5 -4 7 4 12 1 12 -6 0 -10 3 -9 10 2 7 12 11
10 19 -10 6 -17 10 -19 10 -8 1 27 -42 47 -56 26z"/>
<path d="M2040 682 c9 -19 14 -21 26 -12 7 7 11 16 8 21 -6 11 -14 12 -13 2 4
-22 -3 -25 -17 -7 -14 18 -15 18 -4 -4z"/>
<path d="M2090 687 c0 -5 6 -7 14 -4 8 3 17 1 20 -6 3 -9 5 -8 5 1 1 7 5 11
10 7 5 -3 12 -2 15 3 2 4 -11 8 -30 8 -19 0 -34 -4 -34 -9z"/>
<path d="M2430 690 c0 -5 6 -9 13 -7 6 1 11 -2 10 -8 -1 -5 10 -10 23 -10 13
0 24 1 24 2 0 2 -62 33 -67 33 -1 0 -3 -4 -3 -10z"/>
<path d="M2323 682 c-12 -8 -10 -48 2 -61 4 -3 4 7 1 22 -3 18 1 30 12 37 9 5
13 9 7 10 -5 0 -16 -4 -22 -8z"/>
<path d="M1899 678 c-6 -21 -5 -37 2 -32 5 3 6 10 3 16 -5 8 -1 9 10 5 10 -4
15 -3 11 3 -5 9 -24 14 -26 8z"/>
<path d="M2370 675 c0 -8 29 -12 39 -5 9 5 4 8 -13 8 -14 0 -26 -2 -26 -3z"/>
<path d="M2590 676 c0 -2 7 -7 16 -10 8 -3 12 -2 9 4 -6 10 -25 14 -25 6z"/>
<path d="M2075 661 c-3 -5 0 -13 6 -17 7 -4 9 -3 5 4 -3 5 0 13 6 15 9 4 10 6
1 6 -6 1 -14 -3 -18 -8z"/>
<path d="M2148 663 c6 -2 18 -2 25 0 6 3 1 5 -13 5 -14 0 -19 -2 -12 -5z"/>
<path d="M1986 648 c3 -5 10 -6 15 -3 13 9 11 12 -6 12 -8 0 -12 -4 -9 -9z"/>
<path d="M2113 653 c4 -3 1 -13 -6 -22 -11 -14 -10 -14 6 -2 20 15 22 31 5 31
-6 0 -8 -3 -5 -7z"/>
<path d="M2190 651 c0 -6 4 -13 10 -16 6 -3 7 1 4 9 -7 18 -14 21 -14 7z"/>
<path d="M2230 652 c0 -4 9 -8 19 -8 11 0 17 4 15 8 -7 10 -34 10 -34 0z"/>
<path d="M2360 650 c-9 -6 -10 -10 -3 -10 6 0 15 5 18 10 8 12 4 12 -15 0z"/>
<path d="M2415 650 c3 -5 8 -10 11 -10 2 0 4 5 4 10 0 6 -5 10 -11 10 -5 0 -7
-4 -4 -10z"/>
<path d="M2050 646 c0 -2 8 -10 18 -17 15 -13 16 -12 3 4 -13 16 -21 21 -21
13z"/>
</g>
</svg>
