<?xml version="1.0" encoding="utf-8"?>
<!-- Generator: Adobe Illustrator 25.2.3, SVG Export Plug-In . SVG Version: 6.00 Build 0)  -->
<svg version="1.1" id="Layer_1" xmlns="http://www.w3.org/2000/svg" xmlns:xlink="http://www.w3.org/1999/xlink" x="0px" y="0px"
	 viewBox="0 0 1200 1200" style="enable-background:new 0 0 1200 1200;" xml:space="preserve">
<style type="text/css">
	.st0{fill:#330000;}
	.st1{fill:#FD9900;}
	.st2{fill:#340100;}
</style>
<path class="st0" d="M826,455.1c0,98.12,0,196.25,0,294.37c-0.41,2.27-0.84,4.55-1.23,6.82c-5.62,33.07-31.74,59.18-64.91,64.9
	c-2.41,0.42-4.82,0.82-7.24,1.23c-101.7,0-203.4,0-305.1,0c-0.36-0.15-0.71-0.37-1.08-0.43c-3.15-0.57-6.34-0.98-9.47-1.67
	c-30.92-6.77-55.59-32.73-60.73-63.84c-0.36-2.2-0.83-4.39-1.25-6.58c0-98.27,0-196.53,0-294.8c0.42-2.2,0.88-4.39,1.25-6.59
	c5.38-32.52,32.19-59.35,64.66-64.67c2.49-0.41,4.98-0.84,7.48-1.25c101.56,0,203.11,0,304.67,0c2.33,0.42,4.66,0.86,6.99,1.25
	c32.6,5.39,59.39,32.19,64.71,64.71C825.11,450.73,825.58,452.91,826,455.1z M558,495.14c-7.51,0-15.02,0-22.53,0
	c-3.27,0-3.48,0.14-3.54,3.31c-0.12,6.49-1.45,12.72-3.59,18.85c-13.18,37.81-26.28,75.64-39.41,113.47
	c-6.72,19.35-13.44,38.7-20.15,58.05c-1.29,3.72-0.74,4.46,3.18,4.46c10.87,0,21.74,0,32.61,0c3.58,0,4.06-0.36,5.17-3.8
	c4.41-13.65,8.86-27.29,13.21-40.96c0.49-1.56,1.11-2.07,2.77-2.07c21.88,0.06,43.76,0.07,65.65-0.01c1.79-0.01,2.41,0.6,2.95,2.2
	c4.72,13.92,9.57,27.81,14.31,41.72c0.7,2.05,1.8,2.97,4.05,2.95c12.51-0.08,25.03-0.03,37.54-0.04c3.04,0,3.59-0.76,2.69-3.6
	c-0.13-0.41-0.28-0.81-0.42-1.21c-22.51-63.51-45.03-127.01-67.47-190.53c-0.77-2.19-1.95-2.83-4.07-2.81
	C573.3,495.17,565.65,495.14,558,495.14z M715.17,618.16c0-23.74,0-47.48,0-71.22c0-3.32-0.54-3.85-3.85-3.85
	c-11.51,0-23.03,0-34.54,0c-3.35,0-3.77,0.42-3.77,3.88c-0.01,47.41-0.01,94.82,0,142.23c0,3.73,0.63,4.33,4.41,4.33
	c11.08,0.01,22.17,0,33.25,0c4.09,0,4.49-0.4,4.49-4.57C715.17,665.36,715.17,641.76,715.17,618.16z M694.31,527.28
	c13.29,0.24,23.24-9.44,23.47-22.82c0.25-14.56-8.65-24.03-22.87-24.35c-13.04-0.29-23.45,9.56-23.94,22.1
	C670.37,517.54,681.03,527.63,694.31,527.28z"/>
<path class="st1" d="M558,495.14c7.65,0,15.3,0.04,22.95-0.02c2.12-0.02,3.29,0.62,4.07,2.81c22.44,63.53,44.96,127.03,67.47,190.53
	c0.14,0.4,0.29,0.81,0.42,1.21c0.9,2.84,0.35,3.6-2.69,3.6c-12.51,0.01-25.03-0.04-37.54,0.04c-2.25,0.01-3.35-0.9-4.05-2.95
	c-4.74-13.92-9.58-27.8-14.31-41.72c-0.54-1.59-1.16-2.2-2.95-2.2c-21.88,0.08-43.76,0.07-65.65,0.01c-1.67,0-2.28,0.51-2.77,2.07
	c-4.34,13.67-8.79,27.31-13.21,40.96c-1.11,3.44-1.59,3.8-5.17,3.8c-10.87,0-21.74,0-32.61,0c-3.92,0-4.47-0.74-3.18-4.46
	c6.71-19.35,13.43-38.7,20.15-58.05c13.13-37.83,26.23-75.66,39.41-113.47c2.14-6.13,3.46-12.35,3.59-18.85
	c0.06-3.16,0.27-3.31,3.54-3.31C542.98,495.13,550.49,495.14,558,495.14z M534.95,608.24c15.63,0,31.35,0,47.14,0
	c-8.08-26.09-16.14-52.09-23.88-77.1C550.65,556.2,542.82,582.14,534.95,608.24z"/>
<path class="st1" d="M715.17,618.16c0,23.6,0,47.2,0,70.79c0,4.17-0.4,4.57-4.49,4.57c-11.08,0-22.17,0-33.25,0
	c-3.78,0-4.41-0.6-4.41-4.33c-0.01-47.41-0.01-94.82,0-142.23c0-3.46,0.42-3.87,3.77-3.88c11.51,0,23.03,0,34.54,0
	c3.31,0,3.85,0.53,3.85,3.85C715.18,570.68,715.17,594.42,715.17,618.16z"/>
<path class="st1" d="M694.31,527.28c-13.28,0.35-23.93-9.74-23.34-25.07c0.49-12.54,10.9-22.39,23.94-22.1
	c14.22,0.31,23.12,9.79,22.87,24.35C717.55,517.83,707.6,527.52,694.31,527.28z"/>
<path class="st2" d="M534.95,608.24c7.87-26.1,15.7-52.04,23.26-77.1c7.74,25,15.8,51.01,23.88,77.1
	C566.31,608.24,550.58,608.24,534.95,608.24z"/>
</svg>
