<?xml version="1.0" encoding="utf-8"?>
<!-- Generator: Adobe Illustrator 25.2.3, SVG Export Plug-In . SVG Version: 6.00 Build 0)  -->
<svg version="1.1" id="Layer_1" xmlns="http://www.w3.org/2000/svg" xmlns:xlink="http://www.w3.org/1999/xlink" x="0px" y="0px"
	 viewBox="0 0 1200 1200" style="enable-background:new 0 0 1200 1200;" xml:space="preserve">
<style type="text/css">
	.st0{fill:#001E36;}
	.st1{fill:#31A7FD;}
</style>
<path class="st0" d="M738.98,807.05c-90.24,0-180.48,0-270.73,0c-0.87-0.23-1.73-0.57-2.62-0.69c-11.12-1.43-21.37-5.27-30.49-11.75
	c-20.31-14.45-30.69-34.27-30.73-59.18c-0.11-71.99-0.04-143.99-0.04-215.98c0-11.09-0.09-22.18,0.06-33.27
	c0.12-9.21,1.94-18.16,5.91-26.48c13.14-27.53,35.09-42.19,65.57-42.3c85.49-0.32,170.97-0.13,256.46-0.06
	c4.41,0,8.87,0.41,13.22,1.11c28.78,4.62,52.58,28.49,57.29,57.28c0.32,1.95,0.73,3.88,1.11,5.82c0,86.95,0,173.91,0,260.86
	c-0.36,2.02-0.75,4.03-1.09,6.05c-4.98,29.3-28.13,52.45-57.52,57.51C743.26,806.33,741.12,806.69,738.98,807.05z M530.45,637.22
	c2.96,0,5.61-0.07,8.26,0.01c13.48,0.4,26.86-0.15,39.9-4c15.8-4.67,28.14-13.82,35.58-28.74c5.74-11.5,6.99-23.88,5.42-36.5
	c-2.44-19.66-12.43-34.24-30.18-43.23c-11.76-5.96-24.45-8.25-37.5-8.21c-18.25,0.05-36.49,0.52-54.74,0.81
	c-2.61,0.04-2.92,0.32-2.92,2.98c-0.01,56.4-0.01,112.81,0,169.21c0,2.88,0.4,3.27,3.32,3.27c9.76,0.01,19.52,0.01,29.28,0
	c3.14,0,3.59-0.47,3.59-3.66c0-16.54,0-33.08,0-49.62C530.45,638.79,530.45,638.04,530.45,637.22z M637.95,671.27
	c0,3.3-0.03,6.59,0.01,9.89c0.07,7.09-1.17,6.66,6.63,9.6c10.13,3.82,20.74,5.14,31.47,5.49c9.92,0.32,19.77-0.45,29.24-3.69
	c16.72-5.72,27.44-16.69,29.26-34.84c1.47-14.75-4.06-26.48-16.6-34.47c-5.37-3.42-11.16-6.22-16.93-8.94
	c-6.46-3.03-13.17-5.53-19.66-8.51c-2.19-1.01-4.29-2.52-5.99-4.24c-4.27-4.3-2.5-10.9,3.32-12.63c2.23-0.66,4.58-1.17,6.89-1.25
	c13.22-0.47,25.99,1.48,37.99,7.39c0.6,0.3,1.32,0.48,1.99,0.5c1.51,0.05,2.38-0.66,2.38-2.27c-0.01-8.93,0-17.87-0.02-26.81
	c0-1.81-0.72-3.16-2.62-3.7c-1.33-0.38-2.6-1.03-3.94-1.38c-15.01-3.96-30.21-4.84-45.55-2.43c-9.8,1.54-18.48,5.57-25.76,12.43
	c-13.61,12.81-16.47,36.74-2.76,51.93c5.47,6.06,12.19,10.29,19.42,13.71c6.68,3.16,13.66,5.69,20.4,8.74
	c3.03,1.37,6.08,2.98,8.59,5.11c5.01,4.25,3.8,10.88-2.39,13.07c-3.23,1.14-6.77,1.79-10.2,1.89c-14.92,0.45-29.02-2.8-42.12-10.1
	c-2.29-1.27-3-0.86-3.01,1.82C637.94,662.14,637.95,666.71,637.95,671.27z"/>
<path class="st1" d="M530.45,637.22c0,0.82,0,1.57,0,2.32c0,16.54,0,33.08,0,49.62c0,3.2-0.45,3.66-3.59,3.66
	c-9.76,0-19.52,0.01-29.28,0c-2.92,0-3.32-0.39-3.32-3.27c0-56.4,0-112.81,0-169.21c0-2.66,0.31-2.94,2.92-2.98
	c18.25-0.29,36.49-0.76,54.74-0.81c13.05-0.04,25.74,2.25,37.5,8.21c17.75,8.99,27.73,23.57,30.18,43.23
	c1.57,12.62,0.32,24.99-5.42,36.5c-7.44,14.92-19.78,24.07-35.58,28.74c-13.03,3.85-26.42,4.4-39.9,4
	C536.06,637.15,533.41,637.22,530.45,637.22z M530.66,605.73c6.38,0,12.63,0.14,18.87-0.04c5.72-0.16,11.31-1.31,16.7-3.25
	c6.99-2.52,12.63-6.71,15.61-13.76c1.96-4.64,2.34-9.6,1.94-14.55c-0.74-9.22-4.83-16.6-13.39-20.58c-4.17-1.94-8.85-3.4-13.41-3.77
	c-8.11-0.67-16.31-0.36-24.47-0.43c-0.6-0.01-1.21,0.19-1.86,0.29C530.66,568.25,530.66,586.73,530.66,605.73z"/>
<path class="st1" d="M637.95,671.27c0-4.56-0.02-9.13,0.01-13.69c0.01-2.68,0.73-3.09,3.01-1.82c13.1,7.29,27.2,10.54,42.12,10.1
	c3.42-0.1,6.97-0.75,10.2-1.89c6.19-2.19,7.4-8.82,2.39-13.07c-2.51-2.13-5.57-3.74-8.59-5.11c-6.74-3.05-13.72-5.57-20.4-8.74
	c-7.22-3.42-13.94-7.65-19.42-13.71c-13.71-15.19-10.85-39.12,2.76-51.93c7.29-6.86,15.96-10.89,25.76-12.43
	c15.34-2.41,30.54-1.53,45.55,2.43c1.34,0.35,2.6,1,3.94,1.38c1.91,0.55,2.62,1.89,2.62,3.7c0.02,8.93,0.01,17.87,0.02,26.81
	c0,1.61-0.87,2.33-2.38,2.27c-0.67-0.02-1.39-0.2-1.99-0.5c-12-5.9-24.77-7.85-37.99-7.39c-2.31,0.08-4.66,0.59-6.89,1.25
	c-5.81,1.73-7.58,8.32-3.32,12.63c1.7,1.72,3.8,3.24,5.99,4.24c6.49,2.98,13.2,5.47,19.66,8.51c5.77,2.71,11.56,5.52,16.93,8.94
	c12.54,7.99,18.07,19.72,16.6,34.47c-1.82,18.15-12.54,29.12-29.26,34.84c-9.47,3.24-19.32,4.02-29.24,3.69
	c-10.73-0.35-21.34-1.67-31.47-5.49c-7.8-2.94-6.55-2.51-6.63-9.6C637.92,677.86,637.95,674.56,637.95,671.27z"/>
<path class="st0" d="M530.66,605.73c0-19,0-37.48,0-56.09c0.65-0.11,1.25-0.3,1.86-0.29c8.16,0.07,16.35-0.24,24.47,0.43
	c4.56,0.38,9.23,1.84,13.41,3.77c8.56,3.97,12.65,11.35,13.39,20.58c0.4,4.95,0.02,9.91-1.94,14.55
	c-2.98,7.05-8.63,11.24-15.61,13.76c-5.38,1.94-10.98,3.09-16.7,3.25C543.29,605.87,537.04,605.73,530.66,605.73z"/>
</svg>
