<svg id="Layer_1" data-name="Layer 1" xmlns="http://www.w3.org/2000/svg" viewBox="0 0 4800 807.78"><defs><style>.cls-1{fill:#f16224;}.cls-2{fill:#fff;}</style></defs><path class="cls-1" d="M134.48,389.55c-29.34-28.61-57.77-54.44-84.06-82.3C-31.51,220.41-10.29,82.54,93.36,23.68c66.59-37.81,155.09-29,210.48,24,58,55.41,113.9,113,170.75,169.59,4.45,4.44,9.1,8.67,15.08,14.34,23.52-23.88,46-47.33,69.2-70,14.67-14.32,37.07-16.75,53.08-7.3a41.26,41.26,0,0,1,18.48,48.24c-2.59,8.42-8.39,16.55-14.6,23-21.69,22.67-44.14,44.64-66.42,66.75-38.89,38.58-82.17,38.88-120.86.41C370,234.5,312,175.73,253.29,117.75c-40.6-40.07-96.48-41.86-136.14-5.5-37.16,34.07-42.39,93-8.56,130.31,26.83,29.62,57.27,56,87.1,84.73l33.6-38.5C209.14,269.06,186.11,248,165,225.09a65.69,65.69,0,0,1-15.49-31.62c-3.1-17.51,5.36-32.16,21.58-40.05,15.62-7.6,31.69-6.8,46.12,3.92,5.09,3.78,9.46,8.57,14,13.09q121.51,121.43,243,242.88c4.46,4.46,9.13,8.71,14.3,13.63,2.81-2.26,5.13-3.81,7.06-5.74,55.95-55.86,112.3-111.33,167.64-167.78,56.35-57.49,33-145.39-43.29-164.34-29.38-7.29-56.5-.77-80.33,18-7.74,6.09-14.37,13.62-22.18,19.61-17.53,13.43-42.45,11.42-57.24-4-14.47-15.11-15.81-41.32-1.25-57.32C505.7,13.91,563.8-10.08,632.67,4S749.26,59.13,771.19,127.19s6.93,128.68-41.19,180.4c-26,28-55,53.28-84.42,81.57,26.76,26.39,50.4,50.15,74.54,73.39,46.22,44.51,65.25,97.93,58.19,162.11C767.08,726.8,654.69,803.2,555.58,775.26c-35.61-10-65.86-27.72-91.84-54-56.36-57-113.32-113.47-171.94-172-22.8,23-44.23,46.54-67.88,67.56-9.13,8.11-23,13.57-35.26,14.81-15.9,1.61-29.14-7.67-35.83-22.92s-7.3-32,4.45-44.34c29.23-30.69,58.62-61.49,90.57-89.24,26.58-23.09,66.08-20.89,92.93,3.17,27.24,24.4,52.51,51,78.46,76.84,36.68,36.48,72.63,73.73,109.93,109.57,56.47,54.27,143.3,30.84,162.39-43.63,7.64-29.82,2.92-59-18.3-81.56-27.77-29.58-58.27-56.6-88.15-85.25l-34.46,36.07C572.23,511.7,595.31,532.81,616,556c8.21,9.22,14.19,22.76,15.72,35,2,15.78-6.85,29.36-21.92,36.51-15.75,7.47-31.58,6.74-46-3.91-5.09-3.77-9.47-8.55-14-13.07q-121.52-121.43-243-242.89c-4.46-4.45-9.1-8.72-14.45-13.84-3.94,3.54-7.41,6.38-10.57,9.53C226.72,418.43,171.2,473.08,116.7,528.73c-49.65,50.71-36.37,128,26.07,157.22,37.19,17.4,76.93,8.21,112.17-22.89,10-8.86,24.76-15.51,38-16.85,15.46-1.56,29.21,7.95,35.41,23.55,6.38,16,5.26,31.77-6,45.94C246.52,811.55,84,797.63,25.78,690.27-17.47,610.47-6,530.08,58,465.62,82.52,440.92,107.35,416.52,134.48,389.55Z"/><path class="cls-2" d="M4048.85,327.61c25.58-28.47,52.7-46.72,85.41-55.66,102.5-28,202.73,38.86,217.21,146.67,4.38,32.61,2.87,66.07,3.31,99.15.48,36.57.11,73.15.11,111h-98V610.47c0-50.55.25-101.1-.17-151.65a221.55,221.55,0,0,0-3.71-39.75c-7.49-38.91-36.4-63.49-73.66-63.81-38.07-.32-67.85,24.3-75.42,63.89-2.81,14.72-3.71,30-3.83,45-.43,54.56-.17,109.12-.17,164.75H4002c0-45.92.39-91.61-.16-137.3-.28-23.74-.27-47.76-3.85-71.12-6.11-39.94-36.12-65-74-65.23-38.68-.21-68.23,25.18-75.3,65.95a264.3,264.3,0,0,0-3.51,43.27c-.39,54.51-.16,109-.16,164.53h-97.94c0-20.1,0-39.68,0-59.26,0-38.93-.62-77.87.2-116.78,1.33-62.93,22-117.59,74.51-155.65,67.07-48.63,162.09-39.92,220.18,18.74C4044.72,318.84,4046.14,323,4048.85,327.61Z"/><path class="cls-2" d="M1017,159.76h97V340h178.87V160.2h97.68V629h-96.62V436.28h-180V629.39H1017Z"/><path class="cls-2" d="M4510.47,602.85v142.9h-96.82c-.61-1.37-1.46-2.39-1.46-3.4.17-100.52-2.33-201.14,1.41-301.52,3.73-100.14,97.71-180,198.41-174.56,89,4.79,160.87,59.9,182.06,139.54,28.32,106.44-48.13,218.84-157.75,232C4584.44,644,4562,637.91,4510.47,602.85Zm93.52-52c53.32.13,97.56-43.49,98.4-97,.82-52.45-44-98-97-98.55-54.13-.58-99,43.91-98.87,98C4506.72,506.89,4550.46,550.69,4604,550.82Z"/><path class="cls-2" d="M1825.92,487.67H1543.29c21.32,64.52,106.68,84.47,155.67,36.77,8.62-8.39,16.82-12.14,28.83-11.8,29.48.84,59,.28,90.42.28-12.67,36.77-34.42,64.33-63.45,86.8-82.36,63.77-210.44,50.25-274.89-30.52-43.81-54.91-56.6-116.75-29.18-182.86C1479,318,1532,277.86,1604.94,268.6c102.08-12.94,191.92,44.78,217.81,136.26C1830.31,431.56,1830.65,458.45,1825.92,487.67Zm-103-70.27c-12.41-38.87-52.34-64.21-96.61-62-37.75,1.89-75.32,30.45-82,62Z"/><path class="cls-2" d="M3090.8,629.35h-96.88c0-6.31,0-12.39,0-18.47-.12-55.21.09-110.43-.52-165.64-.26-23.83-7.22-46-23.87-63.74-24.37-25.92-54.65-32.57-87.72-21.52-35.31,11.79-53.8,39.56-55.49,75-2.74,57.41-1.63,115-2.13,172.53-.06,6.86,0,13.72,0,21.52h-97.45V160.32h96.87V296c9.61-5.84,16.1-10.23,23-13.9,61.48-32.71,153.65-11.69,199.29,44.36,29.76,36.53,45.88,77.56,46,124.73q.18,85.44.16,170.88C3092,624.31,3091.28,626.54,3090.8,629.35Z"/><path class="cls-2" d="M2243.52,629.24h-90.36V586.69c-26.62,30.63-55,50.07-92.43,52.79-67.39,4.9-146.5-28.73-187.31-108.81-30-58.92-20.88-138.51,24.47-192.39,84-99.78,231.31-96.33,310.35,8,21.71,28.67,35,61.47,35.2,98.23C2243.72,505.43,2243.52,566.37,2243.52,629.24ZM2052,550.8a97.77,97.77,0,0,0,97.5-97.39c.19-53.63-43.41-97.81-96.87-98.15-54-.35-99.15,44.58-98.77,98.38C1954.18,507,1998.49,550.86,2052,550.8Z"/><path class="cls-2" d="M3439.34,392c1.37,29,.92,58.16,4.55,86.83,5.76,45.51,37,72.44,79.33,72,41.6-.47,73.74-29,77.1-74.44,3.49-47.39,2.26-95.13,2.95-142.73.43-30,12.56-49,35.6-55,29.16-7.69,60.3,10.14,61,40.47,1.51,65.28,10.17,131.57-8.86,195.6-19.59,65.94-64.12,109.16-132.28,121.71-69.26,12.75-130-5-175.62-62.57-28.71-36.23-39.44-78.25-40.32-123.25-.79-40.07-.37-80.16-.11-120.23.22-31.86,20.79-53.87,49.44-53.67s48.1,22,48.5,54.31c0,1.16,0,2.33,0,3.49v57.5Z"/><path class="cls-2" d="M2468.44,159.88h97.35V276.34c19,0,36.26-.49,53.5.14,18,.65,33.11,7.75,40.49,25.1,6.27,14.74,6.45,31.33-5.94,41.95-9.73,8.33-23.69,13.75-36.54,15.94-15.75,2.68-32.31.64-51.42.64,2.33,44.07-7.9,87.89,8,129.58,15.11,39.57,47.42,58.28,89.41,61.9V640c-58.88,1.66-109-15.25-148.24-59.6-33.11-37.41-47.27-81.93-47.49-131-.44-94-.14-188.09-.09-282.14A60.08,60.08,0,0,1,2468.44,159.88Z"/><path class="cls-2" d="M3091.92,720c68.4-12.32,96.72-46.42,96.73-116,0-91.82-.18-183.64.1-275.46.11-34.94,27-57.35,59.45-50.49,21,4.44,37.91,21.93,37.89,44.19-.11,108.05,2.41,216.28-3.16,324.08-5.07,98-91.51,167.35-191,161Z"/><path class="cls-2" d="M2307.55,159.82h95.21V629.13h-95.21Z"/><path class="cls-2" d="M3181.87,176.05a55.42,55.42,0,0,1,54.82-55.87c31.1-.5,57,25.12,56.69,56-.33,30.3-25.57,55.14-56,55.05A55.49,55.49,0,0,1,3181.87,176.05Z"/></svg>